<?xml version="1.0" standalone="no"?>
<!DOCTYPE svg PUBLIC "-//W3C//DTD SVG 1.1//EN" "http://www.w3.org/Graphics/SVG/1.1/DTD/svg11.dtd" >
<!--
2013-9-30: Created.
-->
<svg>
<metadata>
Created by iconfont
</metadata>
<defs>

<font id="layui-icon" horiz-adv-x="1024" >
  <font-face
    font-family="layui-icon"
    font-weight="500"
    font-stretch="normal"
    units-per-em="1024"
    ascent="896"
    descent="-128"
  />
    <missing-glyph />
    
    <glyph glyph-name="wenjianjiai" unicode="&#58896;" d="M845.645 678.089l-306.929 0c-30.246 0-55.806 19.156-55.806 41.854 0 53.844-50.083 97.66-111.611 97.66l-195.318 0c-61.555 0-111.611-43.816-111.611-97.66l0-767.322 27.903 0 0-27.902 837.078 0 0 27.902 27.903 0 0 613.858c0.001 61.555-50.083 111.61-111.61 111.61zM175.982 761.797l195.318 0c30.247 0 55.805-19.155 55.805-41.854 0-53.844 50.056-97.659 111.612-97.659l306.928 0c30.763 0 55.805-25.042 55.805-55.806l-781.273 0 0 153.465c0 22.699 25.56 41.854 55.806 41.854zM901.45 510.674l0-530.15-781.274 0 0 530.15 781.274 0z"  horiz-adv-x="1024" />

    
    <glyph glyph-name="goods" unicode="&#59085;" d="M934.4 608c0 16-16 28.8-32 28.8h-137.6c-25.6 108.8-124.8 188.8-240 188.8h-19.2c-115.2 0-214.4-80-240-188.8H128C108.8 640 96 627.2 96 608l-28.8-553.6v-3.2C73.6-16 128-64 192-64h649.6c64 0 118.4 51.2 121.6 115.2v3.2L934.4 608z m-96-608H192c-28.8 0-54.4 22.4-57.6 54.4L156.8 576h102.4v-134.4c-19.2-9.6-32-32-32-54.4 0-35.2 28.8-64 64-64s64 28.8 64 64c0 22.4-12.8 44.8-32 54.4V582.4c0 102.4 83.2 182.4 182.4 182.4h19.2c102.4 0 182.4-83.2 182.4-182.4v-144c-19.2-9.6-32-32-32-54.4 0-35.2 28.8-64 64-64s64 28.8 64 64c0 22.4-12.8 44.8-32 54.4V576h99.2l25.6-521.6c0-32-25.6-54.4-57.6-54.4zM611.2 640h-192c-19.2 0-32-12.8-32-32s12.8-32 32-32h192c19.2 0 32 12.8 32 32s-12.8 32-32 32z"  horiz-adv-x="1024" />

    
    <glyph glyph-name="survey" unicode="&#59058;" d="M733.02247067 849.454545C771.67295767 849.454545 803.04761767 818.166023 803.04761767 779.627344L803.04761767 437.500928 809.74776067 453.813218 412.54141267 51.221379999999954 429.20634867 58.18181800000002 148.73667267 58.18181800000002C110.05430967 58.18181800000002 78.73015867 89.32855500000005 78.73015867 127.77142800000001L78.73015867 872.727273 55.36507967 849.454545 733.02247067 849.454545ZM31.99999967 896L31.99999967 872.727273 31.99999967 127.77142800000001C31.99999967 63.604277000000025 84.26392667 11.63636299999996 148.73667267 11.63636299999996L429.20634867 11.63636299999996 439.00395967 11.63636299999996 445.87128567 18.596802000000025 843.07763367 421.18864 849.77777667 427.979625 849.77777667 437.500928 849.77777667 779.627344C849.77777667 843.859757 797.49399067 896 733.02247067 896L55.36507967 896 31.99999967 896ZM786.52601367 307.36539500000003L770.00440767 290.90909 786.52601367 274.45278699999994 879.98632967 181.36187900000004 896.50793567 164.905574 913.02954267 181.36187900000004 983.12478067 251.18006000000003 999.64638767 267.63636299999996 983.12478067 284.092668 889.66446267 377.183575 873.14285667 393.639878 856.62124967 377.183575 786.52601367 307.36539500000003ZM856.62124967 344.27097000000003L950.08156767 251.18006000000003 950.08156767 284.092668 879.98632967 214.27448500000003 913.02954267 214.27448500000003 819.56922467 307.36539500000003 819.56922467 274.45278699999994 889.66446267 344.27097000000003 856.62124967 344.27097000000003ZM529.51013967 51.365395000000035L524.50779967 46.38282700000002 523.12040067 39.47324800000001 499.75532167-76.89038700000003 492.88191767-111.12156800000002 527.24893667-104.27533200000005 644.07433167-81.00260500000002 651.01132967-79.62068899999997 656.01367067-74.63812099999996 913.02954267 181.36187900000004 929.55114867 197.81818199999998 913.02954267 214.27448500000003 819.56922467 307.36539500000003 803.04761767 323.82169799999997 786.52601367 307.36539500000003 529.51013967 51.365395000000035ZM786.52601367 274.45278699999994L879.98632967 181.36187900000004 879.98632967 214.27448500000003 622.97045767-41.72551499999997 634.90979367-35.36103300000002 518.08439667-58.63375799999994 545.57801167-86.01870299999996 568.94309167 30.344933999999967 562.55335267 18.452786999999944 819.56922467 274.45278699999994 786.52601367 274.45278699999994ZM437.24337267 298.26907300000005C454.86775267 298.26907300000005 469.15513567 284.053815 469.15513567 266.50075300000003L469.15513567 258.08611599999995C469.15513567 240.54095800000005 454.99062567 226.31779700000004 437.24337267 226.31779700000004L437.24337267 226.31779700000004C419.61899267 226.31779700000004 405.33160967 240.533054 405.33160967 258.08611599999995L405.33160967 266.50075300000003C405.33160967 284.04591100000005 419.49611967 298.26907300000005 437.24337267 298.26907300000005L437.24337267 298.26907300000005ZM289.01587167 552.435127C289.01587167 552.435127 291.51779167 530.4855680000001 316.14379967 530.4855680000001 340.76980467 530.4855680000001 342.22582167 552.435127 342.22582167 552.435127 340.59404967 623.5089370000001 373.65516367 657.25782 441.33821667 653.9052819999999 486.38930567 648.839223 509.73073667 623.5089370000001 511.29156267 577.839917 508.16991167 557.501184 491.07178267 531.202385 460.63569267 499.092521 420.33802467 458.489557 400.18919067 422.133143 400.18919067 390.023279L400.18919067 357.09390299999995C400.18919067 357.09390299999995 403.28137167 337.454532 425.55259967 337.454532 447.82382767 337.454532 450.91600867 357.09390299999995 450.91600867 357.09390299999995L450.91600867 379.96566399999995C450.91600867 406.785969 470.21348267 439.044836 508.87937667 476.369762 549.31893767 513.471183 569.39682567 547.3690690000001 569.39682567 577.839917 566.06233567 662.323878 521.86260467 706.353877 436.44290167 709.780917 338.18186467 711.419936 289.01587167 658.971339 289.01587167 552.435127Z"  horiz-adv-x="1024" />

    
    <glyph glyph-name="play" unicode="&#58962;" d="M384.3 170.29999999999995l363.8 213.3L384.3 597 384.3 170.29999999999995zM512 896C230.4 896 0 665.6 0 384s230.4-512 512-512 512 230.4 512 512S793.6 896 512 896zM512-92C250.2-92 36 122.20000000000005 36 384S250.2 860 512 860s476-214.2 476-476S773.8-92 512-92z"  horiz-adv-x="1024" />

    
    <glyph glyph-name="print" unicode="&#59082;" d="M24.380952 630.113822L902.094615 630.113822C942.428977 630.113822 975.238095 597.096629 975.238095 556.514225L975.238095 116.55284500000005 999.619049 141.00813000000005 853.333333 141.00813000000005 877.714285 116.55284500000005 877.714285 214.37398399999995 877.714285 238.82926899999995 853.333333 238.82926899999995 170.666667 238.82926899999995 146.285714 238.82926899999995 146.285714 214.37398399999995 146.285714 116.55284500000005 170.666667 141.00813000000005 121.955642 141.00813000000005C81.590725 141.00813000000005 48.761905 174.02813200000003 48.761905 214.60772499999996L48.761905 654.569105 24.380952 630.113822 24.380952 630.113822ZM24.380952 679.02439L0 679.02439 0 654.569105 0 214.60772499999996C0 147.04577099999995 54.630068 92.09756200000004 121.955642 92.09756200000004L170.666667 92.09756200000004 195.047619 92.09756200000004 195.047619 116.55284500000005 195.047619 214.37398399999995 170.666667 189.91869899999995 853.333333 189.91869899999995 828.952382 214.37398399999995 828.952382 116.55284500000005 828.952382 92.09756200000004 853.333333 92.09756200000004 999.619049 92.09756200000004 1024 92.09756200000004 1024 116.55284500000005 1024 556.514225C1024 624.0733700000001 969.395277 679.02439 902.094615 679.02439L24.380952 679.02439 24.380952 679.02439ZM755.809523-103.544715L780.190477-79.08943099999999 243.809523-79.08943099999999 268.190477-103.544715 268.190477 119.67479700000001C268.190477 133.18107699999996 257.274752 144.13008200000002 243.809523 144.13008200000002 230.344297 144.13008200000002 219.428572 133.18107699999996 219.428572 119.67479700000001L219.428572-103.544715C219.428572-117.05099499999994 230.344297-128 243.809523-128L780.190477-128C793.655703-128 804.571428-117.05099499999994 804.571428-103.544715L804.571428 119.67479700000001C804.571428 133.18107699999996 793.655703 144.13008200000002 780.190477 144.13008200000002 766.725248 144.13008200000002 755.809523 133.18107699999996 755.809523 119.67479700000001L755.809523-103.544715ZM207.238095 458.926829L524.190477 458.926829 524.190477 507.837397 207.238095 507.837397 207.238095 458.926829 207.238095 458.926829ZM219.428572 654.569105L219.428572 850.211382 195.047619 825.756097 828.952382 825.756097 804.571428 850.211382 804.571428 654.569067 853.333333 654.569067 853.333333 850.211382 853.333333 874.666667 828.952382 874.666667 195.047619 874.666667 170.666667 874.666667 170.666667 850.211382 170.666667 654.569105 219.428572 654.569105 219.428572 654.569105Z"  horiz-adv-x="1024" />

    
    <glyph glyph-name="shop" unicode="&#58916;" d="M919.775 356.21000000000004v-415.067h-800.304v424.033c-35.727 32.05-57.279 82.906-57.47 134.003h0.305l114.329 334.821h685.975l114.329-334.821h0.267c-0.19-56.38-13.968-112.147-57.431-142.969v0 0zM176.634-3.0359999999999445h685.975v111.608h-685.975v-111.608zM176.634 164.35699999999997h685.975v170.163c-9.108-1.34-18.102-2.752-28.582-2.752-42.95 0-87.996 21.038-114.329 55.785-23.094-34.32-54.059-55.785-99.467-55.785-40.892 0-76.905 27.065-100.61 55.785-23.704-28.72-59.737-55.785-100.628-55.785-45.408 0-76.372 21.466-99.447 55.785-26.353-34.728-73.266-55.785-116.197-55.785-9.299 0-18.121 1.395-26.715 3.329v-170.74zM824.501 778.178h-609.775l-76.2-223.214h762.195l-76.22 223.214zM120.136 499.179c9.623-48.047 43.083-111.625 83.213-111.625s87.615 0 87.615 55.804h57.165c0 0 0-55.804 70.866-55.804 72.047 0 70.407 55.804 70.407 55.804h60.404c0 0-1.6-55.804 70.427-55.804 70.883 0 70.427 55.804 70.427 55.804h57.622c0 0 0-55.804 87.595-55.804 83.899 0 83.213 111.625 83.213 111.625h-798.953z"  horiz-adv-x="1046" />

    
    <glyph glyph-name="dollar" unicode="&#58969;" d="M515.52971728-125.53986959999997l0 24.48285547-0.03760562-24.48285547c-280.95234773 0-509.54229509 228.5814558-509.56291759 509.53744293 0 280.96083928 228.5814558 509.54229509 509.54229507 509.54229508 280.96205203 0 509.54229509-228.5814558 509.54229509-509.54229508C1025.01499698 103.04158737 796.46265525-125.53986959999997 515.52971728-125.53986959999997zM515.47270189 844.57415865c-253.9632211 0-460.57658531-206.6133642-460.57658531-460.57537139 0.01940977-253.9595817 206.64247827-460.57173316 460.59599508-460.57173316l0.03760562 0c253.93410585 0 460.51956872 206.6133642 460.51956872 460.57173316C976.04928718 637.96079445 769.43592182 844.57415865 515.47270189 844.57415865zM515.49211166 92.08119654999996c-92.57556857 0-167.90080533 70.97262093-167.90080534 158.20204278 0 13.52367738 10.96039085 24.48285548 24.48285549 24.48285549 13.52367738 0 24.48285548-10.95917691 24.48285548-24.48285549 0-60.23058977 53.35593242-109.23633183 118.93388164-109.23633183s118.92417734 49.00452933 118.92417733 109.23633183c0 60.2318025-53.34501421 109.23269244-118.92417733 109.23269244-92.57556857 0-167.90080533 70.96655604-167.90080535 158.19718948 0 87.22942188 75.32402284 158.19718948 167.90080535 158.19718946 49.71176925 0 96.56425319-20.56695664 128.54530074-56.42629742 8.99880142-10.09423448 8.10959707-25.56858307-1.97978525-34.5673845-10.08938234-9.01335905-25.57343522-8.11080981-34.57345058 1.97493195-22.69474011 25.45333834-56.22492205 40.05303902-91.9920661 40.05303902-65.57794921 0-118.93388162-48.99967718-118.93388162-109.2314797 0-60.2318025 53.35593242-109.2314797 118.93388162-109.23147969 92.57556857 0 167.88988711-70.96776878 167.88988711-158.1984034C683.38199876 163.05260472999998 608.06768024 92.08119654999996 515.49211166 92.08119654999996zM511.00726798 18.928628890000027c-13.52367738 0-24.48285548 10.96039085-24.48285547 24.48285547L486.52441251 724.58851683c0 13.52246464 10.95917691 24.48285548 24.48285547 24.48285547 13.52246464 0 24.48285548-10.96039085 24.48285549-24.48285547l0-681.17703247C535.49012227 29.889018530000044 524.52973262 18.928628890000027 511.00726798 18.928628890000027z"  horiz-adv-x="1024" />

    
    <glyph glyph-name="search" unicode="&#58901;" d="M425.32314 96.74427500000002c-50.476609 0-99.454056 9.889052-145.574064 29.392609-44.535953 18.83345-84.525652 45.78947-118.858272 80.123895-34.33262 34.330813-61.290445 74.3169-80.123895 118.851047C61.263352 371.23002799999995 51.368882 420.205669 51.368882 470.67686c0 50.480222 9.89447 99.457668 29.396222 145.579482 18.83345 44.535953 45.791276 84.518427 80.129314 118.854659 34.327201 34.325395 74.3169 61.28322 118.852853 80.113058 46.120008 19.503558 95.097455 29.392609 145.574064 29.392609 50.47119 0 99.454056-9.889052 145.568645-29.392609 44.535953-18.829838 84.531071-45.787663 118.858272-80.113058 34.334426-34.334426 61.295864-74.318706 80.129314-118.854659 19.505364-46.121814 29.396222-95.099261 29.396222-145.579482 0-50.47119-9.892664-99.448637-29.40164-145.568645-18.83345-44.530535-45.791276-84.52204-80.123895-118.847434-34.33262-34.336232-74.320512-61.292251-118.858272-80.123895C524.77539 106.63332700000001 475.794331 96.74427500000002 425.32314 96.74427500000002L425.32314 96.74427500000002zM425.32314 790.11219c-176.146134 0-319.44978-143.298227-319.44978-319.435331S249.177006 151.241529 425.32314 151.241529c176.140716 0 319.444362 143.300034 319.444362 319.437137S601.46205 790.11219 425.32314 790.11219L425.32314 790.11219zM425.32314 790.11219M887.614175-76.61486300000001c-22.653605 0-43.94532 8.767389-59.957455 24.701857l-161.280948 156.342744 37.936027 39.133551 161.714441-156.772624c5.74739-5.740165 13.412986-8.90105 21.587935-8.90105 8.176756 0 15.838738 3.160884 21.58071 8.90105 5.756421 5.758228 8.926337 13.443691 8.926337 21.636703 0 8.169531-3.164496 15.836932-8.911887 21.578904l-0.312476 0.308864-156.443893 161.383903 39.131745 37.932415 156.312039-161.241211c15.948918-16.021167 24.730757-37.305657 24.730757-59.968292 0-22.736691-8.837832-44.102461-24.875254-60.161558C931.703992-67.78425600000003 910.350865-76.61486300000001 887.614175-76.61486300000001L887.614175-76.61486300000001zM887.614175-76.61486300000001M263.175207 308.474739c-43.367329 43.351073-67.241938 100.978505-67.236519 162.263532 0.010837 61.26877 23.885446 118.888977 67.231101 162.247276l38.548336-38.528467c-68.226328-68.246196-68.226328-179.249219-0.009031-247.434004L263.175207 308.474739 263.175207 308.474739zM263.175207 308.474739"  horiz-adv-x="1024" />

    
    <glyph glyph-name="male" unicode="&#58978;" d="M1024 486.4l-3.413333 0c-6.826667-20.48-23.893333-34.133333-47.786667-34.133333-23.893333 0-40.96 13.653333-47.786667 34.133333L921.6 486.4 921.6 721.92l-245.76-245.76c47.786667-61.44 75.093333-139.946667 75.093333-225.28 0-208.213333-167.253333-375.466667-375.466667-375.466667C167.253333-128 0 39.253333 0 247.46666700000003S167.253333 622.933333 375.466667 622.933333c85.333333 0 163.84-27.306667 225.28-75.093333L849.92 793.6 614.4 793.6 614.4 797.013333c-20.48 6.826667-34.133333 23.893333-34.133333 47.786667 0 23.893333 13.653333 40.96 34.133333 47.786667L614.4 896l341.333333 0 0-3.413333C962.56 896 965.973333 896 972.8 896 1000.106667 896 1024 872.106667 1024 844.8c0-6.826667 0-10.24-3.413333-17.066667L1024 827.733333 1024 486.4zM375.466667 520.5333330000001c-150.186667 0-273.066667-122.88-273.066667-273.066667 0-150.186667 122.88-273.066667 273.066667-273.066667 150.186667 0 273.066667 122.88 273.066667 273.066667C648.533333 397.653333 525.653333 520.5333330000001 375.466667 520.5333330000001z"  horiz-adv-x="1024" />

    
    <glyph glyph-name="left" unicode="&#58883;" d="M350.71347675 387.2234003c5.63973689-4.20522667 9.35344355-6.324224 12.2600865-9.240576 135.78331022-135.65587911 271.46467555-271.41855763 407.27468564-407.04530963 13.95431348-13.93489541 21.36109511-29.65139911 17.06363259-49.62895645-7.94806045-36.94774045-51.8511123-52.25403733-80.95152356-28.16470281-3.20155497 2.64449897-6.07542992 5.69313659-9.01726814 8.63618844-148.24121837 148.2218003-296.47879585 296.45088237-444.7151597 444.68724623-26.96442311 26.96442311-26.98626845 54.54537008-0.04004978 81.48673422 148.97182341 148.97910518 298.0043283 297.88660622 446.84022518 446.99921067 14.76501808 14.79535882 31.62961541 21.34653155 51.8632486 16.17404206 35.14307318-8.97479111 48.8449517-51.59260918 26.0469191-79.88959762-2.81926163-3.49646697-6.12397511-6.62277689-9.30732563-9.8097683-134.97260563-134.98959645-269.95370667-269.98283378-404.99548918-404.90810786-2.92120652-2.91756563-6.63734045-5.05598103-12.31591348-9.29640295z"  horiz-adv-x="1024" />

    
    <glyph glyph-name="set" unicode="&#59158;" d="M519.75498577 552.67306988c-92.73919848 0-167.90783936-75.79707689-167.90783937-169.33143928 0-93.45741105 75.15581566-169.28013837 167.90783937-169.28013837 92.72637324 0 167.90783936 75.82272733 167.90783935 169.28013837C687.66282512 476.87599299 612.49418423 552.67306988 519.75498577 552.67306988zM519.75498577 281.76585245c-55.6614744 0-100.72931334 45.51672181-100.72931336 101.57577815 0 56.1360077 45.06783894 101.60142861 100.72931336 101.60142861 55.64864918 0 100.72931334-45.4654209 100.72931334-101.60142861C620.49712432 327.28257425000004 575.40363493 281.76585245 519.75498577 281.76585245zM1018.66904463 595.6119215599999l-67.16570079 117.28667818c-18.51962421 32.40934235-59.59881832 43.51598677-91.75165618 24.82963467l-79.42661544-46.23493436c-37.14185019 31.83220724-79.32401363 57.86741301-126.21303443 74.6171562l0 57.45700584c0 37.39835468-30.06232627 67.73001067-67.14005035 67.73001068L452.6021102 891.29747277c-37.11619974 0-67.16570078-30.33165598-67.16570079-67.73001068l0-57.45700584c-46.88902083-16.76256844-89.10965994-42.78494898-126.20020922-74.6171562l-79.45226588 46.23493436c-32.10153698 18.68635211-73.19355632 7.59253291-91.75165618-24.82963467l-67.14005034-117.28667818c-18.55809987-32.3836919-7.54123201-73.8219923 24.56030494-92.50834443l78.65710196-45.78605153c-4.41187723-24.07294641-7.31037798-48.62042614-7.31037797-73.975895 0-25.32981842 2.91132597-49.90294858 7.31037797-73.92459409l-78.65710196-45.78605153c-32.10153698-18.71200257-43.11840482-60.12465253-24.56030494-92.50834443l67.14005034-117.29950342c18.55809987-32.35804146 59.65011922-43.51598677 91.75165618-24.77833375l79.45226588 46.23493437c37.09054929-31.83220724 79.31118841-57.9187139 126.20020922-74.61715622l0-57.48265627c0-37.39835468 30.06232627-67.73001067 67.16570079-67.73001068l134.35705202 0c37.09054929 0 67.14005034 30.33165598 67.14005034 67.73001068l0 57.48265627c46.88902083 16.71126755 89.07118426 42.78494898 126.22585966 74.61715622l79.41379021-46.23493437c32.15283786-18.73765302 73.23203199-7.59253291 91.75165618 24.77833375l67.16570079 117.29950342c18.55809987 32.3836919 7.55405724 73.79634186-24.57313017 92.50834443l-78.63145151 45.78605153c4.39905202 24.04729597 7.28472753 48.59477569 7.28472753 73.92459409 0 25.35546887-2.89850074 49.90294858-7.28472753 73.975895l78.63145151 45.78605153C1026.22310186 521.78992924 1037.22714449 563.21540443 1018.66904463 595.6119215599999zM931.4446927 544.81120725l-93.71391554-54.50720418c11.15794534-33.69186479 17.85271252-69.46141597 17.85271253-106.96237247 0-37.47530604-6.68194196-73.21920676-17.85271253-106.85977066l93.71391554-54.58415553c16.04435587-9.32393821 21.55920241-30.03667582 12.26091463-46.2349344l-33.57643778-58.63692647c-9.27263732-16.23673424-29.80582178-21.73875555-45.86300286-12.37634165l-93.30350835 54.3020006c-47.36355413-53.87876819-111.37424968-92.53399488-184.00349612-107.41125532l0-74.52737966c0-18.68635211-15.05681358-33.8457675-33.60208823-33.84576749l-67.19135123 0c-18.54527465 0-33.55078733 15.15941538-33.55078734 33.84576749l0 74.52737966c-72.65489688 14.87726043-136.65276721 53.53248713-184.04197178 107.41125532l-93.30350836-54.3020006c-16.05718109-9.3624139-36.59036554-3.86039258-45.86300286 12.37634165l-33.57643778 58.63692647c-9.2598121 16.21108379-3.74496557 36.92382137 12.31221553 46.2349344l93.67543985 54.58415553c-11.17077055 33.6405639-17.86553775 69.38446463-17.86553774 106.85977066 0 37.50095647 6.68194196 73.27050765 17.86553774 106.96237247l-93.67543985 54.50720418c-16.05718109 9.3624139-21.57202762 30.06232627-12.31221553 46.26058483l33.57643778 58.63692648c9.28546255 16.21108379 29.80582178 21.73875555 45.86300286 12.40199211l93.30350836-54.32765105c47.37637937 53.87876819 111.38707492 92.53399488 184.04197178 107.41125531l0 74.5017292c0 18.71200257 15.00551269 33.87141796 33.55078734 33.87141796l67.19135123 0c18.54527465 0 33.60208823-15.15941538 33.60208823-33.87141796l0-74.5017292c72.62924644-14.87726043 136.62711676-53.53248713 184.00349612-107.41125531l93.30350835 54.32765105c16.05718109 9.34958867 36.60319078 3.80909168 45.86300286-12.40199211l33.57643778-58.63692648C953.0038951 574.87353351 947.48904857 554.1736211499999 931.4446927 544.81120725z"  horiz-adv-x="1024" />

    
    <glyph glyph-name="starfill" unicode="&#58968;" d="M509.57312 871.46496001c-26.5216 0-50.67776-14.47936-65.13664-41.03168l-101.34528-205.12768c-9.66656-21.7088-31.37536-36.18816-55.51104-38.59456L63.13984 552.90880001C2.816 545.67936001-21.30944 473.29280001 22.1184 429.84448001l164.096-159.26272c16.88576-16.896 24.12544-41.02144 21.71904-65.15712l-38.61504-224.41984c-7.23968-45.86496 28.96896-84.45952 72.3968-84.45952 12.07296 0 21.71904 2.39616 33.78176 9.63584L478.208 12.359680010000034c9.64608 4.84352 21.71904 7.23968 33.78176 7.23968 12.06272 0 24.13568-2.39616 33.81248-7.23968l202.68032-106.17856c12.0832-4.82304 21.73952-9.63584 33.80224-9.63584 41.02144 0 79.616 38.6048 72.3968 84.45952l-38.61504 224.41984c-4.82304 24.13568 4.82304 48.26112 21.71904 65.15712L1001.8816 429.84448001c43.43808 41.03168 19.3024 115.84512-41.04192 123.07456l-226.816 33.80224c-24.13568 2.39616-43.43808 19.3024-55.5008 38.59456L577.15712 830.43328001C560.26112 859.39200001 536.12544 871.46496001 509.57312 871.46496001L509.57312 871.46496001"  horiz-adv-x="1025" />

    
    <glyph glyph-name="loading" unicode="&#58941;" d="M933.0636567 377.58134451m-83.41405786-1e-8a16.29180818 16.29180818 0 1 1 166.82811575 0 16.29180818 16.29180818 0 1 1-166.82811575 0ZM878.95724078 579.9167957m-76.08714739 0a14.86077098 14.86077098 0 1 1 152.17429478 0 14.86077098 14.86077098 0 1 1-152.17429478 0ZM751.01811146 725.89139701m-70.45106239 0a13.75997312 13.75997312 0 1 1 140.9021248 0 13.75997312 13.75997312 0 1 1-140.9021248 0ZM572.91782572 803.10576139m-64.81497741 0a12.65917527 12.65917527 0 1 1 129.62995482 0 12.65917527 12.65917527 0 1 1-129.62995482 0ZM378.47289349 796.90606791m-60.30610941 0a11.77853699 11.77853699 0 1 1 120.61221883 0 11.77853699 11.77853699 0 1 1-120.61221883 0ZM208.26312673 709.54675053m-56.36084991 0a11.0079785 11.0079785 0 1 1 112.72169984 0 11.0079785 11.0079785 0 1 1-112.72169984 0ZM88.21451641 554.5544132499999m-48.47033094 0a9.46686151 9.46686151 0 1 1 96.94066188 0 9.46686151 9.46686151 0 1 1-96.94066188 0ZM47.07109596 368.00000001m-40.57981194 0a7.92574452 7.92574452 0 1 1 81.15962388 0 7.92574452 7.92574452 0 1 1-81.15962388 0ZM88.21451641 181.44558676999998m-37.19816095 1e-8a7.26526581 7.26526581 0 1 1 74.39632189-1e-8 7.26526581 7.26526581 0 1 1-74.39632189 1e-8ZM204.31786725 29.271292000000017m-30.43485896 0a5.94430839 5.94430839 0 1 1 60.86971791 0 5.94430839 5.94430839 0 1 1-60.86971791 0ZM371.7095915-59.21524238999996m-24.23516545 1e-8a4.73343076 4.73343076 0 1 1 48.47033091-1e-8 4.73343076 4.73343076 0 1 1-48.47033091 1e-8ZM560.51843874-69.36019537000004m-18.59908048 0a3.63263291 3.63263291 0 1 1 37.19816095 0 3.63263291 3.63263291 0 1 1-37.19816095 0ZM737.49150749 0.5272585300000401m-12.39938699 0a2.42175528 2.42175528 0 1 1 24.79877398 0 2.42175528 2.42175528 0 1 1-24.79877398 0ZM869.37589631 139.17494932m-6.763302 1e-8a1.32095742 1.32095742 0 1 1 13.52660398-1e-8 1.32095742 1.32095742 0 1 1-13.52660398 1e-8Z"  horiz-adv-x="1024" />

    
    <glyph glyph-name="down" unicode="&#58906;" d="M511.99887408 226.67846365000003L69.33276653 669.36033398l-64.01376925-64.01376924 506.70126915-506.69563959 506.625833 506.69563959-64.0081397 64.01376924L511.99549634 226.67846365000003 511.99887408 226.67846365000003z"  horiz-adv-x="1024" />

    
    <glyph glyph-name="recycle2" unicode="&#60508;" d="M190.340069 100.192166l-23.13593 50.569746-73.095785 159.569252c-24.1357 37.287231-2.964518 76.334549-2.042519 77.993329 0.701988 1.263783 16.555048 29.713742 51.92358 86.153172L25.435299 554.216753l289.099351-11.385305 121.982192-256.904091-124.44222 84.377736c-52.881394-62.560848-81.284281-116.236328-95.955422-150.951991-16.727986-39.58353-19.680225-63.687508-19.708877-63.926962L190.340069 100.192166zM118.933763 373.474272c-0.75213-1.413186-13.161764-25.484418 1.378393-47.117111l0.695848-1.036609 56.001455-122.252345c14.498202 42.960441 47.349401 113.803929 120.80232 197.730387l8.93551 10.209526 53.67548-36.394908-65.654302 138.27425-162.388461 6.395664 53.471842-35.96512-7.965415-12.610202C138.295739 408.033369 119.836319 375.090073 118.933763 373.474272zM511.479137 22.113903l-234.091526 16.170285c-33.225729 2.605338-60.263525 31.924083-72.319096 59.82555-20.307512 47.128367-9.091052 78.259388 3.89675 114.306372 2.117221 5.875824 4.306072 11.952216 6.478552 18.382673l4.133134 12.238742 12.739139-1.979074c1.981121-0.292666 44.674479-6.29845 263.577071-14.424524l14.487969-0.537236 3.53757-176.688141L511.479137 22.113903zM279.719726 68.894346l203.384154-14.047947-2.835581 141.65423c-152.902412 5.817496-216.021985 10.539031-239.805668 12.793374-0.881067-2.472308-1.753947-4.894474-2.615571-7.283894-12.529361-34.775015-20.092617-55.765071-4.591575-91.737354C241.629199 90.893382 260.275885 70.463074 279.719726 68.894346zM393.288295 504.661104l-151.757333 77.380368-23.531949 14.785751L343.520821 795.41821c18.380626 28.910447 57.135278 38.764885 87.430258 35.728736 49.245587-4.470825 67.48602-25.427112 90.575902-51.954279 4.729721-5.433756 9.619078-11.051707 15.195074-17.058514l8.761548-9.438976-7.774057-10.267854c-0.99363-1.329275-26.296923-35.648918-137.107681-225.252207L393.288295 504.661104zM260.604366 606.776829l120.81153-61.600987c77.334319 132.035152 111.324458 185.386244 124.528178 205.215872-2.685155 3.028986-5.209652 5.930059-7.573489 8.646937-22.135136 25.432229-33.246195 38.197974-70.261227 41.542138l-0.162706 0.01535c-20.893866 2.110057-47.701418-4.63353-58.497299-21.61325L260.604366 606.776829zM771.879865 530.857742l-289.242614 13.788028 137.990794 65.025992c-30.065759 75.707262-63.907519 126.024252-87.573521 155.392116-27.057239 33.577746-46.992267 47.739281-47.190789 47.87845l-39.971363 28.058033 48.795333-0.116657 177.988764-0.531096c44.75839 3.408633 68.866461-33.740452 69.874417-35.331693 0.74906-1.171686 18.432815-28.882817 51.67287-87.197968l122.686227 58.887178L771.879865 530.857742zM607.26776 569.438433l147.57815-7.03523 84.320431 142.939503-57.512878-27.605731-7.064906 12.492522c-36.977169 65.38108-57.347103 97.384981-57.923224 98.287537-0.768503 1.168616-15.804964 23.444968-42.088584 21.190625l-0.674359-0.057305-139.363048 0.416486c31.010271-32.462343 79.590709-95.617731 119.924323-202.781426l4.988618-13.254885L607.26776 569.438433zM705.090716-114.901681l-155.655106 248.360508L690.899506 376.123612l5.010107-146.725736c81.646532-8.509814 142.17407-1.627057 179.209568 5.91164 42.159192 8.582469 63.781652 19.828604 63.9945 19.941168l49.931203 26.76355-29.634948-48.333822-97.351212-158.941965c-16.84976-40.086997-59.595306-44.970214-63.334467-45.322232-1.867534-0.183172-33.869389-3.25923-99.612719-5.741771L705.090716-114.901681zM585.305563 134.033925l84.107583-134.200468-2.306532 53.451376 15.489786 0.518816c75.588559 2.532683 112.788809 6.130627 113.155153 6.166443l0.225127 0.021489c2.096754 0.222057 28.54922 3.490497 38.093597 27.40107l0.485047 1.213641 75.654051 123.518175c-43.800575-12.31856-120.732735-25.112957-231.03491-11.733229l-13.044084 1.582031-2.28095 66.789149L585.305563 134.033925zM860.493066 238.998535l-5.563716 11.603269c-0.734734 1.5104-19.799952 40.059368-137.290853 225.729068l-8.201799 12.961196 145.556097 92.2531 23.164582 13.488199 118.185726-202.393593c18.22099-30.465872 7.116071-69.714781-7.945973-94.083795l-0.148379-0.233314c-24.589025-38.228673-53.29174-43.465954-83.679841-49.009204-10.033517-1.830695-20.405749-3.723811-31.68156-6.863315L860.493066 238.998535zM751.775992 479.78146C833.440943 350.44272 865.157295 295.797146 876.650047 275.054729c8.025791 1.835811 15.528672 3.203972 22.410406 4.459568 28.636201 5.223978 45.937239 8.379854 63.295582 35.295877 10.964726 17.807574 18.012236 44.797275 7.616468 62.116733l-0.095167 0.159636-102.688777 175.854147L751.775992 479.78146z"  horiz-adv-x="1024" />

    
    <glyph glyph-name="close_fill" unicode="&#4103;" d="M512 896C229.706831 896 0 666.332554 0 384s229.667446-512 512-512c282.293169 0 512 229.667446 512 512S794.332554 896 512 896z m266.460554-733.908677a31.507692 31.507692 0 1 0-44.559754-44.551877L512 339.440246 290.091323 117.539446C283.939446 111.37969199999998 275.881354 108.30769199999997 267.815385 108.30769199999997s-16.124062 3.079877-22.283816 9.231754a31.507692 31.507692 0 0 0 0 44.551877L467.440246 384 245.531569 605.908677a31.507692 31.507692 0 1 0 44.559754 44.551877L512 428.551877l221.9008 221.9008a31.507692 31.507692 0 0 0 44.559754-44.551877L556.551877 384l221.908677-221.908677z"  horiz-adv-x="1024" />

    
    <glyph glyph-name="recycle" unicode="&#59113;" d="M477.714286 228l-8.571429-210.285714-1.142857-12.571429-240 16.571429q-20.571429 1.714286-38.285714 18t-26.857143 37.428571q-6.285714 15.428571-8.285714 31.428572t2.285714 37.142857 6.857143 31.428571 12.285714 36.571429 10.857143 30.285714q44.571429-6.857143 290.857143-16zM256.571429 562.857143l102.857142-216.571429-84 52.571429q-36-41.142857-63.714285-82.571429t-41.428572-71.428571-22.571428-54-10.571429-36l-2.285714-12L26.285714 346.85714299999995q-9.714286 14.857143-10.285714 32t3.428571 26.857143l4.571429 10.285714q20 36 65.142857 107.428571L9.142857 572.5714290000001z m703.428571-295.428572l-107.428571-205.142857q-6.857143-16.571429-20.857143-26.571428T806.857143 24l-10.285714-2.285714q-40.571429-4-125.142858-6.857143l4.571429-93.714286-131.428571 209.714286 120.571428 206.857143 4-98.857143q97.142857-9.142857 161.714286-2.857143t97.142857 18.857143zM511.428571 795.428571q-26.857143-36-151.428571-248.571428L178.857143 653.714286l-10.857143 6.857143L296.571429 864q11.428571 17.714286 34.285714 25.714286t45.714286 5.714285q13.714286-1.142857 27.714285-6.857142t24-12T452 857.714286t20.571429-19.714286 20.571428-22.571429 18.285714-20z m374.285715-175.428571l121.142857-207.428571q10.285714-21.142857 7.142857-43.428572t-15.714286-42.285714q-7.428571-11.428571-18.857143-21.142857t-21.714285-16-27.714286-12.571429-26.857143-9.142857-29.428571-8-26.285715-6.857143q-19.428571 41.142857-151.428571 249.142857l178.857143 111.428572z m-81.714286 129.142857l81.142857 47.428572-125.714286-213.142858-239.428571 11.428572 86.285714 49.142857q-19.428571 50.857143-42.857143 94.857143t-43.142857 70.571428-36.857143 45.714286T456.571429 881.714286l-9.714286 7.428571 231.428571-0.571428q17.714286 1.714286 33.142857-6t22.285715-16.285715l6.285714-8.571428q22.285714-34.857143 64-108.571429z"  horiz-adv-x="1024" />

    
    <glyph glyph-name="female" unicode="&#58977;" d="M908.142554 780.88993c-150.282592 150.282592-396.490242 150.282592-549.970335 0-137.492584-137.492584-153.480094-351.725215-38.370024-505.205309l-63.950039-67.147541-159.875097 159.875098c-22.382514 22.382514-57.555035 22.382514-79.937549 0s-22.382514-57.555035 0-79.937549l159.875097-159.875097-60.752537-60.752537c-22.382514-22.382514-22.382514-57.555035 0-79.937549s57.555035-22.382514 79.937549 0L255.852156 48.661982999999964l159.875098-159.875098c22.382514-22.382514 57.555035-22.382514 79.937548 0s22.382514 57.555035 0 79.937549l-159.875097 159.875098 67.147541 67.147541c172.665105-127.900078 415.675254-92.727557 543.575332 79.937548 115.11007 156.677596 99.12256 370.910226-38.370024 505.205309z m-79.937549-466.835285c-108.715066-108.715066-281.380172-108.715066-386.897736 0s-108.715066 281.380172 0 386.897736 281.380172 108.715066 386.897736 0c51.160031-51.160031 79.937549-121.505074 79.937549-195.047619 3.197502-70.345043-28.777518-140.690086-79.937549-191.850117z"  horiz-adv-x="1024" />

    
    <glyph glyph-name="home" unicode="&#59022;" d="M894.063 347.336c-12.043 0-21.793-9.75-21.793-21.793v-347.915c0-24.064-19.523-43.565-43.542-43.565H218.802c-24.042 0-43.564 19.5-43.564 43.565V325.56500000000005c0 12.043-9.75 21.794-21.772 21.794-12.065 0-21.815-9.75-21.815-21.794v-348.048c0.089-47.706 38.467-86.284 86.083-86.885l611.15-0.089c48.016 0.112 86.884 38.98 86.95 86.951V325.56500000000005c0.023 12.021-9.75 21.771-21.77 21.771zM1019.392 432.328L584.927 867.217C551.157 900.54 496.974 900.63 463.07 867.55L28.338 432.685c-7.48-8.57-7.368-21.46 0.801-29.63 8.17-8.147 21.06-8.258 29.607-0.779L493.011 836.051c16.896 16.896 44.188 16.963 61.24 0.29l434.866-434.31c8.593-7.168 21.215-6.99 29.251 1.047 8.036 8.036 8.214 20.702 1.024 29.25z"  horiz-adv-x="1025" />

    
    <glyph glyph-name="table" unicode="&#58925;" d="M317.25351487 54.54693952000002v116.84789023c0 10.94475199-8.52989619 19.4746482-19.4746482 19.47464926h-194.74648515c-10.94475199 0-19.4746482-8.52989619-19.47464818-19.47464926v-116.84789023c0-10.94475199 8.52989619-19.4746482 19.47464818-19.47464927h194.74648515c10.94475199 0 19.4746482 8.52989619 19.4746482 19.47464927z m0 233.69578153v116.84789128c0 10.94475199-8.52989619 19.4746482-19.4746482 19.47464821h-194.74648515c-10.94475199 0-19.4746482-8.52989619-19.47464818-19.47464821v-116.84789128c0-10.94475199 8.52989619-19.4746482 19.47464818-19.47464821h194.74648515c10.94475199 0 19.4746482 8.52989619 19.4746482 19.47464821z m311.59437642-233.69578153v116.84789023c0 10.94475199-8.52989619 19.4746482-19.47464925 19.47464926h-194.74648408c-10.94475199 0-19.4746482-8.52989619-19.47464925-19.47464926v-116.84789023c0-10.94475199 8.52989619-19.4746482 19.47464925-19.47464927h194.74648408c10.94475199 0 19.4746482 8.52989619 19.47464925 19.47464927z m-311.59437642 467.39156411v116.84789023c0 10.94475199-8.52989619 19.4746482-19.4746482 19.47464927h-194.74648515c-10.94475199 0-19.4746482-8.52989619-19.47464818-19.47464927v-116.84789023c0-10.94475199 8.52989619-19.4746482 19.47464818-19.47464926h194.74648515c10.94475199 0 19.4746482 8.52989619 19.4746482 19.47464926z m311.59437642-233.69578258v116.84789128c0 10.94475199-8.52989619 19.4746482-19.47464925 19.47464821h-194.74648408c-10.94475199 0-19.4746482-8.52989619-19.47464925-19.47464821v-116.84789128c0-10.94475199 8.52989619-19.4746482 19.47464925-19.47464821h194.74648408c10.94475199 0 19.4746482 8.52989619 19.47464925 19.47464821z m311.59437537-233.69578153v116.84789023c0 10.94475199-8.52989619 19.4746482-19.47464818 19.47464926h-194.74648515c-10.94475199 0-19.4746482-8.52989619-19.4746482-19.47464926v-116.84789023c0-10.94475199 8.52989619-19.4746482 19.4746482-19.47464927h194.74648515c10.94475199 0 19.4746482 8.52989619 19.47464818 19.47464927z m-311.59437537 467.39156411v116.84789023c0 10.94475199-8.52989619 19.4746482-19.47464925 19.47464927h-194.74648408c-10.94475199 0-19.4746482-8.52989619-19.47464925-19.47464927v-116.84789023c0-10.94475199 8.52989619-19.4746482 19.47464925-19.47464926h194.74648408c10.94475199 0 19.4746482 8.52989619 19.47464925 19.47464926z m311.59437537-233.69578258v116.84789128c0 10.94475199-8.52989619 19.4746482-19.47464818 19.47464821h-194.74648515c-10.94475199 0-19.4746482-8.52989619-19.4746482-19.47464821v-116.84789128c0-10.94475199 8.52989619-19.4746482 19.4746482-19.47464821h194.74648515c10.94475199 0 19.4746482 8.52989619 19.47464818 19.47464821z m0 233.69578258v116.84789023c0 10.94475199-8.52989619 19.4746482-19.47464818 19.47464927h-194.74648515c-10.94475199 0-19.4746482-8.52989619-19.4746482-19.47464927v-116.84789023c0-10.94475199 8.52989619-19.4746482 19.4746482-19.47464926h194.74648515c10.94475199 0 19.4746482 8.52989619 19.47464818 19.47464926z m77.89859384 194.74648408v-662.13804819c0-53.55528307-43.81795896-97.37324204-97.37324202-97.3732431h-817.93523696A97.64588712 97.64588712 0 0 0 5.6591395 54.54693952000002v662.13804819C5.6591395 770.24027184 49.47709846 814.0582308099999 103.03238152 814.0582308099999h817.93523696C974.52290154 814.0582308099999 1018.3408605 770.24027184 1018.3408605 716.68498771z"  horiz-adv-x="1024" />

    
    <glyph glyph-name="up" unicode="&#58905;" d="M1011.648 121.856a42.752 42.752 0 0 0-60.352-0.32L512 556.096l-439.36-434.56a42.752 42.752 0 0 0-60.032 60.672L481.92 646.4639999999999c2.56 2.496 5.632 3.904 8.576 5.632 1.92 1.088 3.52 2.752 5.504 3.584a43.2 43.2 0 0 0 32 0c1.472-0.576 2.624-1.856 4.032-2.624 3.456-1.856 7.04-3.648 9.984-6.528l469.312-464.256c16.768-16.64 16.896-43.648 0.32-60.416z"  horiz-adv-x="1024" />

    
    <glyph glyph-name="link" unicode="&#58956;" d="M626.688 498.688c87.38133333-87.38133333 87.38133333-234.83733333 0-322.21866667l-207.53066667-207.53066666c-87.38133333-87.38133333-234.83733333-87.38133333-322.21866666 0l-5.46133334 5.46133333c-87.38133333 87.38133333-87.38133333 234.83733333 0 322.21866667L238.93333333 438.61333333c0-43.69066667 5.46133333-87.38133333 21.84533334-125.61066666L167.936 220.15999999999997c-49.152-49.152-49.152-125.61066667 0-174.76266667l5.46133333-5.46133333c49.152-49.152 125.61066667-49.152 174.76266667 0l207.53066667 207.53066667c49.152 49.152 49.152 125.61066667 0 174.76266666l-5.46133334 5.46133334c-5.46133333 5.46133333-16.384 16.384-27.30666666 16.384l76.45866666 76.45866666c10.92266667-5.46133333 16.384-10.92266667 27.30666667-21.84533333z m300.37333333 300.37333333c-92.84266667 92.84266667-240.29866667 92.84266667-327.68 5.46133334L397.312 596.992c-87.38133333-87.38133333-87.38133333-234.83733333 0-322.21866667l5.46133333-5.46133333 21.84533334-21.84533333 76.45866666 76.45866666c-10.92266667 5.46133333-16.384 10.92266667-27.30666666 16.384l-5.46133334 5.46133334c-49.152 49.152-49.152 125.61066667 0 174.76266666L675.84 728.064c49.152 49.152 125.61066667 49.152 174.76266667 0l5.46133333-5.46133333c49.152-49.152 49.152-125.61066667 0-174.76266667l-92.84266667-92.84266667c16.384-38.22933333 21.84533333-81.92 21.84533334-125.61066666l141.99466666 141.99466666c92.84266667 92.84266667 92.84266667 234.83733333 0 327.68z"  horiz-adv-x="1024" />

    
    <glyph glyph-name="capital" unicode="&#58910;" d="M557.530387 298.369376h58.749776c19.936924 0 36.311862-16.124939 36.311862-36.124862 0-19.811925-16.374938-36.061863-36.311862-36.061863h-93.373645v-38.937852h93.373645c19.936924 0 36.311862-16.124939 36.311862-36.123862 0-19.874924-16.374938-36.062863-36.311862-36.062863h-93.373645v-24.624906c0-19.873924-16.249938-36.061863-36.249861-36.061863-20.062924 0-36.311862 16.187938-36.311862 36.061863V115.06007399999999H357.03315c-20.030924 0-36.280862 16.187938-36.280862 36.062863 0 19.998924 16.249938 36.123862 36.280862 36.123862h93.311645v38.937852h-93.311645c-20.030924 0-36.280862 16.249938-36.280862 36.061863 0 19.999924 16.249938 36.124862 36.280862 36.124862h93.311645v28.062893l-67.812742 66.623747c-0.655998 0.499998-1.312995 1.124996-1.968992 1.749993L361.001135 414.245935l-4.905981 4.749982h0.031l-17.155935 16.998935c-14.218946 13.999947-14.280946 36.84386-0.155999 50.968806 14.155946 14.155946 37.155858 14.155946 51.404804 0.155999L412.000941 465.49174l79.717696-78.248702 74.499717 73.123721 21.874916 21.530918c14.124946 14.124946 37.124859 14.030947 51.186805-0.063 14.187946-14.155946 14.187946-37.030859-0.063-51.093805l-17.123934-16.873936-4.937981-4.937981-19.562926-19.249927c-0.624998-0.624998-1.249995-1.249995-1.937993-1.812993l-72.686723-71.436728v-18.062931h34.562869v0.003zM218.847677-127.99900000000002h-0.499999c-101.873612 0-185.216295 58.748776-207.37121 146.185443-14.218946 56.249786-11.687955 123.686529-8.468968 169.560354C15.163452 370.619101 164.848882 531.1474900000001 310.002329 613.678175c-9.718963 8.905966-15.84394 14.749944-18.28093 17.437934-35.404865 39.968848-57.248782 73.654719-63.998756 127.561514-7.530971 60.186771 25.687902 103.935604 88.904661 117.060554 21.562918 4.843982 55.24979-5.468979 76.873707-13.343949 61.843764 45.718826 154.217413 44.62483 215.029181-2.279991 51.748803 20.092923 96.811631 19.279927 134.810487-13.31295 37.249858-32.062878 39.937848-62.374762 31.749879-107.061592-6.624975-25.405903-35.874863-70.404732-43.874833-80.998691a592.310744 592.310744 0 0 0-38.686853-45.593827c27.749894-13.717948 40.748845-20.87392 47.43682-25.904901 118.811547-89.842658 199.43524-159.372393 237.185096-301.433852 18.49893-69.936734 37.436857-141.87246 25.498903-219.746163-4.812982-30.874882-10.749959-69.249736-32.436876-101.248614-37.999855-56.123786-111.436576-92.436648-187.310287-92.561648l-152.935417-0.124999-212.62319 0.062999-198.496244-0.188999zM330.75225 824.861371c-51.529804-10.37496-53.654796-38.999851-51.092805-59.686773 5.15598-40.905844 21.279919-65.53075 51.186805-99.279622 2.71899-2.999989 10.43796-9.999962 22.687914-21.124919l47.06182-43.717834-34.02987-16.687936C220.410671 513.021559 66.413257 352.61816999999996 54.694302 184.120811c-2.905989-42.311839-5.31298-104.185603 7.030973-152.997417 16.155938-63.873757 79.092699-106.811593 156.622403-106.811593l0.437999-26.1869-0.094 26.1869 305.027838 0.249999 106.248596-0.125 152.935417 0.125c58.936776 0.063 115.43656 27.437896 143.935452 69.623735 15.124942 22.312915 19.624925 51.499804 23.999909 79.812696 10.37496 67.061745-7.249972 133.685491-24.249908 198.121245-33.561872 126.436518-104.811601 187.560286-218.184169 273.339959-7.74997 5.843978-55.624788 28.93789-71.437728 36.530861l-34.436869 16.562937 27.687895 26.2489c26.811898 25.187904 47.123821 49.562811 59.248774 65.71775 9.937962 12.937951 31.56288 49.218813 34.562868 60.030771 5.748978 32.061878 3.562986 40.779845-14.874943 56.561785-25.687902 22.093916-51.874802 16.999935-95.436636-1.343995l-15.562941-6.655975-12.437953 11.718955c-45.373827 42.655838-123.249531 43.718833-169.810353 2.468991l-10.968958-9.718963-23.999909 7.655971c-15.122942 5.561979-37.122859 13.623948-50.185809 13.623948z"  horiz-adv-x="1024" />

    
    <glyph glyph-name="404" unicode="&#58908;" d="M286.0768 294.08533333l4.7232 1.92426667c1.22453333-2.97386667 10.84586667-8.04693333 28.68906667-15.21813333l5.7728-13.81973334c11.37066667-26.58986667 24.66453333-66.64853333 40.05866666-120.17813333 15.39413333 5.94773333 36.736 1.0496 64.3744-14.5184l1.92426667-4.7232-50.2048-38.13546667 19.4176-45.4816c2.624-5.94773333-13.29493333-16.61866667-47.7568-31.83786666-11.8944 7.69706667-21.16586667 10.32106667-28.1632 7.52213333l-1.0496 2.27413333c-11.5456 27.11466667-17.3184 45.1328-17.49333333 54.0544l-4.7232-1.92426666 6.8224-15.91893334-11.89546667-4.54826666c-44.432-17.3184-76.61866667-19.9424-96.736-8.3968l-4.7232-1.92426667-1.92426667 4.54826667c-7.52213333 17.8432 3.84853333 82.56746667 34.4608 194.1728 12.24533333 4.7232 20.4672 15.91893333 24.49066667 33.41226666 13.81973333 9.09546667 25.0144 15.21813333 33.936 18.7168z m-89.56373333-234.05653333c30.2624 20.816 43.73226667 34.98666667 40.58346666 42.3328-1.0496 2.27413333-0.69973333 5.94773333 0.69973334 10.84586667l-1.0496 2.27413333c-27.2896-22.91626667-40.58346667-35.1616-39.88373334-36.736-1.39946667-9.62133333-1.5744-15.744-0.34986666-18.7168z m0.5248-7.872l1.0496-2.27413333c12.4192 1.22453333 22.56533333 3.49866667 30.61333333 6.64746666 0.87466667 0.34986667 7.87093333 5.7728 21.16586667 16.2688l-1.0496 2.27413334c-8.04693333-3.1488-13.6448-1.0496-16.7936 6.47146666-24.6656-16.44266667-36.21013333-26.24-34.98666667-29.38773333z m9.7952 75.57013333l11.89546666 4.54826667c-1.22453333-2.79893333-6.8224-9.27146667-16.61866666-19.76746667-2.448-11.5456-2.9728-18.71786667-1.74933334-21.69173333 29.56373333 22.0416 43.0336 36.03626667 40.4096 42.15893333l0.87466667 11.0208-3.6736-4.1984-9.62133333-3.6736-1.0496 2.27413334c11.89546667 4.54826667 19.06773333 18.01706667 21.86666666 40.2336l-1.0496 2.27413333c-26.93973333-22.5664-39.8848-35.51146667-39.18506666-39.00906667l-2.0992-14.1696z m6.12266666 31.66186667l1.0496-2.27413333 2.27413334 0.87466666c30.26346667 24.6656 42.85866667 42.85866667 37.7856 54.75413334 1.5744 0.69866667 2.0992 1.74933333 1.5744 3.14773333l-2.44906667-0.87466667c-30.78826667-23.09013333-43.73333333-40.58346667-38.8352-52.304-1.5744-0.87466667-2.0992-1.92426667-1.39946667-3.32373333z m9.9712 41.10933333l1.0496-2.27413333c14.6944 11.0208 38.3104 31.8368 70.848 62.10026667l2.27306667 0.87466666-6.8224 15.91893334 0.5248 5.42186666-2.44906667-0.87466666c-39.00906667-35.16053333-59.12533333-55.27786667-60.35093333-60.52586667l-5.07306667-20.64106667z m75.3952-111.60533333l-38.1344-14.86933333c-1.5744-0.5248-7.3472-4.54826667-17.3184-12.0704l0.87466667-2.0992 13.12 2.27413333 21.3408 8.3968c12.42026667 4.89813333 34.28693333 21.16586667 65.24906667 49.1552l-6.82133334 15.91893333-2.27413333-0.87466666c-25.7152-18.01813333-36.736-31.13813333-33.23733333-39.36 1.22453333-2.97386667 0.34986667-5.248-2.79893334-6.47253334zM251.616 256.82453333l0.87466667-2.0992c19.06773333 18.01813333 29.2128 27.11466667 30.08746666 27.46346667l-1.0496 2.27413333-9.44533333-3.67253333c-12.94506667-5.07306667-19.76746667-13.12-20.4672-23.96586667z m8.22186667-44.608c17.1424-40.40853333 21.3408-72.42026667 12.77013333-96.03626666l-3.6736-30.78826667 28.688 11.19573333c-8.04693333 32.0128-19.59253333 69.97333333-34.63573333 114.05546667l-1.0496 2.27413333-2.0992-0.69973333z m4.02346666 9.4464l6.8224-15.91786666c14.34346667 16.0928 26.064 25.88906667 34.81066667 29.38773333l-3.84853333 9.09653333-2.624 12.42026667-2.27413334-0.87466667c-22.5664-17.8432-33.58613333-29.03893333-32.8864-34.112z m14.34346667-39.7088c25.54026667 18.368 35.86133333 33.06133333 31.13813333 44.25706667l-2.97386666 6.8224-2.44906667-0.87466667c-22.91626667-20.11733333-32.71146667-33.76106667-29.73866667-40.93333333l4.02346667-9.27146667z m1.74933333-4.37333333l2.97386667-6.8224 2.44906667-12.5952 2.44906666 0.87466667-0.5248-5.42293334 6.8224-15.91786666 34.6368 29.2128-6.8224 16.09386666c-9.9712-11.0208-17.3184-17.49333333-22.21653333-19.4176l-2.44906667-1.0496c-0.69973333 1.74933333 6.47253333 10.84586667 21.69173334 27.11466667l-3.32373334 14.51946667-1.0496 2.27413333-34.6368-28.864z m13.81973334-45.13173333l2.97386666-6.8224 2.44906667-12.42026667c25.54026667 18.368 37.61066667 29.21386667 36.2112 32.53653333l-5.7728 13.81973334c-12.5952-8.3968-24.49066667-17.49333333-35.86133333-27.11466667z m51.60533333-17.3184c-25.36533333-18.8928-36.38613333-32.0128-33.0624-39.7088l1.5744-9.9712c26.93973333 19.24266667 39.36 31.312 37.25973333 36.0352 26.06506667 22.5664 41.28426667 34.6368 45.6576 36.2112l-0.87466666 2.0992c-1.92426667 2.97386667-7.17226667 4.37333333-15.56906667 4.7232l-32.88746667-34.112-2.0992 4.7232z m-29.73866667-54.05333334l4.89813334-11.37066666-0.5248-5.42293334 2.44906666 0.87466667c25.0144 15.56906667 36.56 25.1904 34.81066667 29.3888l-5.7728 13.81866667-35.86133333-27.28853334z m6.2976-21.34186666l5.7728-13.6448c27.46346667 14.1696 40.23466667 23.616 38.30933334 28.16426666l-4.89813334 11.37066667c-23.616-16.2688-36.736-24.84053333-39.184-25.89013333z m25.36533334 83.96693333l1.9232-4.37333333c5.248 2.0992 9.09653333 10.496 11.5456 25.54026666l-2.44906667-0.87466666c-3.49866667-12.0704-7.17226667-18.71786667-11.0208-20.29226667z m399.01653333 123.85066667l4.1984-0.17493334c-0.17493333-2.624 5.072-9.62133333 15.744-20.81706666l-0.7008-12.0704c-1.22453333-23.44-5.7728-57.552-13.81973333-102.15893334 13.46986667-0.69973333 27.63946667-11.37066667 42.33386666-32.18773333l-0.17493333-4.19733333-51.07946667-11.5456-2.0992-40.23466667c-0.34986667-5.248-15.91893333-7.872-46.88213333-7.872-5.94773333 9.62133333-11.8944 14.6944-18.01706667 14.86933333l0.17493334 2.0992c1.22453333 23.96586667 3.49866667 39.18506667 6.64746666 45.83146667l-4.1984 0.17493333-0.69973333-13.99466666-10.496 0.52586666c-39.01013333 1.92426667-64.02453333 10.496-74.69546667 25.88906667l-4.1984 0.17493333 0.17493334 4.02346667c0.87466667 15.744 32.71146667 59.82613333 95.6864 132.4224 10.84586667-0.5248 20.81706667 5.07306667 30.26346666 16.61866667 13.29493333 2.27413333 23.96586667 3.1488 31.83786667 2.624zM592.9056 97.98826667000003l-0.17493333-2.0992c9.62133333-3.1488 18.01813333-4.89813333 25.18933333-5.248 0.69973333 0 7.872 1.5744 21.5168 5.07306666l0.17493333 2.0992c-7.17226667 0.34986667-10.496 3.84853333-10.14613333 10.32106667-24.31466667-4.02346667-36.38506667-7.52213333-36.56-10.14613333z m2.44906667 5.94773333c29.91253333 5.42293333 44.9568 11.37066667 45.30666666 17.8432 0.17493333 1.92426667 1.5744 4.54826667 4.37333334 7.69706667l0.17493333 2.0992c-28.51413333-7.872-42.68266667-12.5952-42.85866667-13.99466667-4.5472-6.47253333-6.82133333-11.0208-6.99733333-13.6448z m32.01173333 46.70613333l10.496-0.5248c-1.92426667-1.5744-8.3968-4.7232-19.59253333-9.09546666-5.94666667-7.69706667-9.09546667-12.94506667-9.09546667-15.56906667 29.91253333 6.47253333 44.9568 12.42026667 45.13066667 17.8432l4.54933333 7.872-4.1984-1.92533333-8.57173333 0.34986666 0.17493333 2.0992c10.496-0.5248 20.64213333 6.99733333 30.78826667 22.5664l0.17493333 2.0992c-27.98933333-7.872-42.33386667-13.29493333-43.0336-15.91893333l-6.8224-9.79626667z m53.87946667-58.95146666l-33.5872 1.5744c-1.39946667 0-6.99733333-1.0496-17.14346667-3.1488l-0.17493333-1.92426667 10.496-2.624 18.8928-0.87466667c11.0208-0.5248 33.06133333 4.37333333 66.12266666 14.86933334l0.7008 13.99466666-1.92426666 0.17493334c-25.54026667-4.89813333-38.48533333-10.84586667-38.8352-18.01813334-0.34986667-2.97386667-1.74933333-4.1984-4.5472-4.02346666z m-37.7856 80.46933333l-0.17493334-2.10026667 1.92426667-0.17493333c31.31306667 8.22186667 47.232 17.66826667 47.75573333 27.98933333 1.39946667 0 2.27413333 0.5248 2.27413334 1.74933334l-2.0992 0.17493333c-31.13706667-6.8224-47.056-15.56906667-47.5808-25.89013333-1.39946667 0-2.0992-0.5248-2.0992-1.74933334z m53.8784 23.44c-1.92426667-35.51146667-10.32106667-60.7008-25.18933334-75.3952l-13.81973333-21.5168 25.36533333-1.22453333c5.5968 26.41493333 10.8448 58.25173333 15.568 95.86133333l0.17493334 2.10026667-2.0992 0.17493333z m-31.66186667 3.6736l-0.17493333-2.0992c14.86933333 3.32373333 39.88373333 10.84586667 75.04533333 22.56533333l1.92426667-0.17493333 0.69973333 13.99466667 2.44906667 3.84853333-2.0992 0.17493333c-41.63413333-13.12-63.85066667-21.34186667-66.64853334-24.83946666l-11.19573333-13.46986667z m15.2192-151.84l-0.69973333-12.0704c25.5392 1.39946667 38.30933333 4.1984 38.48426666 8.22186667l0.5248 9.9712c-23.26613333-4.1984-36.03626667-6.2976-38.30933333-6.12266667z m3.14773333 17.8432l-0.5248-9.9712-2.448-3.84853333 2.09813334-0.17493334c24.1408 3.1488 36.2112 6.64746667 36.38613333 10.14613334l0.69973333 12.0704-36.2112-8.22186667z m41.4592 30.2624c-25.54026667-5.59786667-38.48533333-11.72053333-38.8352-18.368l-2.44906666-7.872c26.93973333 5.424 40.4096 10.14613333 40.75946666 14.34453333 27.46346667 8.04693333 43.03253333 11.89546667 46.88106667 11.72053334l0.17493333 1.92426666c-0.34986667 2.79893333-3.6736 5.59786667-9.9712 8.57173334l-36.736-14.34453334 0.176 4.02346667z m-32.0128 29.9136l-0.34986666-6.12266667-2.624-9.9712c25.54026667 5.07306667 38.48533333 9.27146667 38.48533333 12.24533334l0.69973333 12.0704c-12.0704-2.0992-24.1408-4.89813333-36.2112-8.22186667z m6.2976 37.95946667l-0.34986666-6.12266667-2.79893334-10.14613333 2.0992-0.17493334-2.44906666-3.84746666-0.69973334-13.99466667 36.2112 10.14613333 0.69973334 14.16853334c-11.37066667-4.89813333-19.24266667-7.17226667-23.44106667-6.99733334l-2.0992 0.17493334c0 1.5744 8.74666667 5.7728 25.89013333 12.94506666l2.79893334 11.89546667 0.17493333 2.0992-36.03626667-10.14613333z m0.17493334 3.84853333c25.54026667 5.07306667 38.66026667 12.5952 39.18506666 22.39146667l0.34986667 6.12266666-2.0992 0.17493334c-24.1408-7.3472-36.56106667-14.1696-36.91093333-20.4672l-0.5248-8.22186667z m3.84853333 34.112l-0.69973333-13.99466667c16.44373333 7.17226667 28.68906667 10.67093333 36.38613333 10.14613334l0.34986667 8.04693333 2.624 10.14506667-1.92426667 0.17493333c-23.26613333-5.77173333-35.51146667-10.496-36.736-14.5184z m3.49866667 30.08746667l-0.17493334-1.92426667c20.64213333 6.99733333 31.31306667 10.496 32.36266667 10.496l0.17493333 2.0992-8.3968 0.34986667c-11.5456 0.5248-19.4176-3.1488-23.96586666-11.0208z m22.74133333-130.14826667l-0.17493333-3.84853333c4.7232-0.17493333 10.67093333 4.7232 17.8432 15.04426666l-2.0992 0.17493334c-6.99733333-7.872-12.24533333-11.5456-15.56906667-11.37066667zM476.92693333 382.07573333000005c57.20213333 10.84586667 95.86133333 2.0992 116.50346667-26.24 10.32106667-19.94133333 16.61866667-35.68533333 19.06773333-47.23093333 12.59413333-60.52586667-6.2976-110.03093333-56.85333333-147.99146667-13.29386667-5.42293333-24.13973333-8.9216-32.36266667-10.67093333-33.76-6.47146667-67.872 5.42293333-102.33386666 35.6864-9.9712 17.49333333-16.26773333 33.23733333-19.24266667 47.232-14.16853333 68.04693333 2.10026667 115.45386667 48.98133333 142.04266667l26.24 7.17226666zM403.28106667 257.52533332999997c6.6464 5.59786667 12.24533333 8.74666667 16.61866666 9.62133334-10.32106667-9.9712-15.39413333-16.09386667-14.86933333-18.368-0.34986667-5.7728-0.17493333-10.84586667 0.87466667-15.2192l2.27413333 0.34986666c25.88906667 16.7936 38.30933333 27.2896 37.43466667 31.488l-2.27413334 10.67093334c-4.37333333-3.84853333-8.57173333-6.12266667-12.42026666-6.99733334l-0.87466667 4.37333334c11.5456 2.27413333 16.2688 12.76906667 14.34453333 31.488l-2.0992-0.35093334c-23.96586667-17.49333333-36.90986667-29.56266667-38.83413333-36.21013333-1.0496-2.44906667-1.0496-6.12266667-0.17493333-10.84586667z m0.17493333 22.21653334c35.33546667 23.09013333 51.07946667 43.03253333 47.5808 60-31.66293333-25.18933333-47.40586667-38.48426667-47.232-40.05866667-0.87466667-9.79626667-1.04853333-16.44373333-0.3488-19.94133333z m2.624 31.488l0.5248-2.2752c28.864 22.0416 47.5808 39.70986667 56.15253333 52.8288 11.0208 2.0992 18.192 7.872 21.86666667 17.3184l-2.2752-0.5248c-39.35893333-7.3472-64.72426667-29.91253333-76.2688-67.34826667z m1.74933333-86.24213334c2.624-5.248 4.5472-9.9712 5.42186667-14.34346666 20.11733333 15.744 32.36266667 23.9648 36.38613333 24.66453333l-4.02346666 19.24266667c-5.94773333-1.22453333-18.54293333-11.0208-37.78453334-29.56373334z m8.04586667-15.91786666c2.27413333-10.496 5.59786667-15.744 10.32106667-15.744l29.73866666 23.44c-0.34986667 1.22453333-2.27413333 6.64746667-5.7728 16.44373333-17.8432-15.04426667-29.21386667-23.09013333-34.28693333-24.13973333z m11.5456-22.21653334c5.42293333-6.2976 9.09653333-9.27146667 11.19573333-8.9216l4.1984 0.87466667c11.72053333 11.19573333 20.4672 17.3184 26.24 18.368-0.87466667 4.1984-4.1984 9.4464-10.14613333 15.744-21.34186667-15.56906667-31.83786667-24.31573333-31.488-26.06506667z m16.7936-14.51946666l0.5248-2.27413334c2.624 0.5248 6.8224-0.87466667 12.5952-4.02346666 20.11733333 10.67093333 30.08746667 17.8432 30.08746667 21.16693333-6.47253333 1.74933333-10.14506667 4.7232-11.01973334 8.9216-12.5952-5.248-23.26613333-13.12-32.18773333-23.79093333z m22.39146667-6.64746667l0.5248-2.27413333 15.91786666 0.69973333 13.46986667 2.624c2.624 0.5248 8.74666667 4.02346667 18.71786667 10.496l-0.5248 2.27413333c-7.3472-1.39946667-14.51946667 0.17493333-21.86666667 4.54826667l-26.24-18.368z m7.52213333 74.34666667l4.89706667-23.2672c3.1488-15.39306667 13.29493333-26.76373333 30.4384-34.11093334l4.37333333 0.87466667c26.24 36.56 34.28586667 78.71893333 24.31573333 126.47466667l-2.624 12.77013333-6.64746666 20.81706667-6.47253334-1.22453334c-4.1984-0.87466667-15.2192 0-32.88746666 2.44906667-18.192-32.71253333-23.09013333-67.5232-15.39306667-104.784z m0 121.7504l0.34986667-2.0992c11.54453333-2.27413333 18.7168-3.32373333 21.3408-2.79893334 14.86933333 10.84586667 23.0912 19.06773333 24.84053333 24.84053334l-22.74133333-2.0992c-2.79893333-0.5248-10.84586667-6.47253333-23.78986667-17.8432z m34.63573333 0l4.02346667 2.97386666c1.22453333 0.17493333 6.64746667-3.1488 16.09386667-10.32106666 11.0208 13.99466667 19.41653333 21.5168 25.36533333 22.5664-0.7008 3.1488-8.74666667 4.54826667-23.96586667 4.37333333-14.6944-11.5456-21.86666667-18.01813333-21.5168-19.59253333z m2.79893334-189.79946667l0.5248-2.27413333 4.37333333 0.87466666c21.16693333 4.02346667 38.1344 18.368 50.90453333 43.03253334-9.9712-10.14506667-28.51306667-24.13973333-55.80266666-41.632z m11.0208 13.12c40.7584 25.89013333 59.82613333 45.13173333 57.37706666 57.37706667 2.0992 5.248 2.79893333 9.09653333 2.44906667 11.5456-37.43466667-28.3392-54.928-47.93066667-52.65386667-58.60266667-2.44906667-0.52373333-4.7232-3.84746667-7.17226666-10.32z m7.17226666 165.13386667l8.04693334-16.26773334 2.27413333 0.5248c4.54826667 6.12266667 14.16853333 15.39306667 28.864 27.6384l-0.52586667 2.27413334c-5.7728 5.59786667-8.9216 9.4464-9.4464 11.5456l-4.37333333-0.87466667-24.83946667-24.84053333z m8.74666667-20.2912l4.54826667-10.32106667-0.5248-8.9216 4.37333333 0.87466667c20.816 18.8928 30.96213333 28.864 30.7872 30.26346666l-0.5248 2.27413334c-2.0992 9.97013333-4.54826667 14.5184-7.52213333 13.99466666-18.368-18.368-28.688-27.8144-31.13706667-28.16426666z m3.1488-103.38453334c29.56266667 21.16693333 43.73226667 34.81173333 42.3328 41.28426667 1.39946667 7.69706667 1.92426667 12.94506667 1.22453333 15.744l-2.0992-0.35093333-37.43466666-31.488c-2.97386667-15.392-4.37333333-23.78986667-4.02346667-25.18933334z m2.624 75.74506667l2.624-12.77013333 10.66986667 4.1984c-7.52213333-8.3968-11.0208-13.4688-10.67093334-15.21813334-0.69973333-11.19573333-0.87466667-17.8432-0.34986666-19.9424 19.9424 14.51946667 32.88746667 26.5888 38.66026666 36.21013334l-2.624 12.77013333c-7.52213333-7.52213333-13.6448-11.72053333-17.8432-12.5952 8.57173333 12.0704 14.86933333 18.54293333 18.8928 19.24266667l-4.37333333 21.16693333c-21.86666667-19.06773333-33.4112-30.08853333-34.98666667-33.0624z m-250.67626667 279.18933333c-10.32106667 0-18.8928-7.3472-21.16586666-17.14346666-4.54826667-13.29386667 1.74933333-30.7872 31.48693333-38.1344 1.39946667 37.95946667 0 52.8288 0 52.8288-3.32373333 1.5744-6.64746667 2.44906667-10.32106667 2.44906666z m429.45493334-34.112c0-1.22346667 0-2.27306667-0.17493334-3.32266666 2.27413333 3.49866667 3.49866667 7.69706667 3.49866667 12.24533333 0 12.4192-9.79626667 22.56533333-21.86666667 22.56533333-3.6736 0-7.17226667-0.87466667-10.14613333-2.624 15.91893333-0.34986667 28.68906667-13.12 28.68906667-28.864z m-189.9744-18.01706666c0.69973333 16.7936-35.1616 52.48-35.1616 52.48 0-19.41866667 9.9712-45.6576 13.29493333-51.9552-8.57173333-12.42026667-14.1696-34.46186667-14.1696-34.46186667s35.33653333 16.96853333 36.03626667 33.93706667z m-45.83253334-13.81973334a4.704 4.704 0 0 1 4.7232 4.7232 4.704 4.704 0 0 1-4.7232 4.7232 4.704 4.704 0 0 1-4.7232-4.7232 4.704 4.704 0 0 1 4.7232-4.7232z m-46.35626666 130.49813334c-0.87466667 9.4464-2.27413333 17.3184-2.27413334 17.3184s-57.20213333 7.52213333-68.22293333-32.5376c16.96853333 18.71786667 51.60533333 16.7936 70.49706667 15.2192z m187.00053333-15.744c-10.32106667 40.23466667-67.5232 33.76213333-67.5232 33.76213333s-1.5744-7.872-2.624-17.3184c18.8928 1.39946667 53.70453333 2.624 70.1472-16.44373333z m-214.464-103.0336c31.8368 0 57.552 23.44106667 57.552 52.304 0 28.864-25.89013333 52.304-57.55306667 52.304-31.8368 0-57.552-23.44-57.552-52.304 0-28.864 25.89013333-52.304 57.552-52.304z m0 101.80906666c30.2624 0 54.752-22.21546667 54.752-49.504 0-27.2896-24.4896-49.50613333-54.752-49.50613333-30.08853333 0-54.75413333 22.21653333-54.75413333 49.50506667 0 27.2896 24.6656 49.50506667 54.75306666 49.50506666z m0-84.6656c21.3408 0 38.6592 15.744 38.6592 34.98666667 0 19.41653333-17.3184 34.9856-38.66026667 34.9856s-38.6592-15.744-38.6592-34.98666667 17.3184-34.98666667 38.6592-34.98666666z m16.79253333 19.06666667c2.0992 2.27413333 5.248 2.79893333 6.99733334 1.22453333 1.74933333-1.5744 1.5744-4.54826667-0.5248-6.8224-2.0992-2.27413333-5.248-2.79893333-6.99733334-1.22453333-1.92426667 1.5744-1.74933333 4.54826667 0.5248 6.8224z m-41.984 35.86133333c5.77386667 6.12266667 14.17066667 7.52213333 19.0688 3.32373334 4.89706667-4.1984 4.19733333-12.5952-1.5744-18.71786667-5.7728-6.12266667-14.1696-7.52213333-19.06773333-3.32373333-4.89813333 4.37333333-4.1984 12.77013333 1.5744 18.71786666z m200.82133334-72.07146666c31.8368 0 57.552 23.44106667 57.552 52.304 0 28.864-25.89013333 52.304-57.552 52.304-31.83786667 0-57.552-23.44-57.552-52.304-0.17493333-28.864 25.71413333-52.304 57.552-52.304z m0 101.80906666c30.2624 0 54.75306667-22.21546667 54.75306666-49.504 0-27.2896-24.49066667-49.50613333-54.75306666-49.50613333-30.08853333 0-54.75306667 22.21653333-54.75306667 49.50506667 0 27.2896 24.49066667 49.50506667 54.752 49.50506666z m0-84.6656c21.34186667 0 38.6592 15.744 38.6592 34.98666667 0 19.41653333-17.31733333 34.9856-38.6592 34.9856-21.34186667 0-38.66026667-15.744-38.66026667-34.98666667s17.3184-34.98666667 38.66026667-34.98666666z m16.61866666 19.06666667c2.0992 2.27413333 5.248 2.79893333 6.99733334 1.22453333 1.74933333-1.5744 1.5744-4.54826667-0.5248-6.8224-2.0992-2.27413333-5.248-2.79893333-6.99733334-1.22453333-1.74933333 1.5744-1.5744 4.54826667 0.5248 6.8224z m-41.80906666 35.86133333c5.7728 6.12266667 14.1696 7.52213333 19.06773333 3.32373334 4.89813333-4.1984 4.1984-12.5952-1.5744-18.71786667-5.7728-6.12266667-14.1696-7.52213333-19.06773333-3.32373333-4.89813333 4.37333333-4.1984 12.77013333 1.5744 18.71786666zM986.84906667 381.376c-0.69973333 1.0496-1.39946667 1.92426667-2.0992 3.1488-0.34986667 0.34986667-0.5248 0.69973333-0.87466667 1.0496-0.34986667 0.34986667-2.0992 0.69973333-2.44906667 1.0496-12.0704 15.744-31.312 43.03253333-67.17333333 49.33013333V473.216c0 4.54826667-0.87466667 9.27146667-5.42293333 9.27146667H697.51466667c-0.17493333 11.01973333-0.34986667 19.41653333-0.69973334 29.73866666 26.06506667 1.9232 46.1824 20.64 46.1824 44.256 0 23.96586667-21.16693333 43.38346667-48.2816 44.608-2.0992 83.44213333-6.2976 153.58933333-8.22186666 160.58666667l-0.5248 1.04853333c-2.0992 2.44906667-10.14506667 5.59786667-22.56533334 8.9216 0.34986667 14.86933333-3.49866667 31.31306667-12.42026666 49.15626667 3.6736-23.0912-24.31573333-38.48533333-28.3392-40.58453333h-0.5248c0.17493333 4.7232 0 61.57546667-94.112 104.43413333-1.5744-47.05706667-15.04426667-75.3952-34.112-92.53866667h-0.5248l-5.7728-0.34986666v-0.17493334h0.34986666l0.34986667-0.17493333c-0.87466667-0.17493333-1.0496-0.5248-1.22453333-1.22453333-11.01973333-8.57173333-29.91253333-19.4176-68.74666667-19.4176-14.1696 0-30.08853333 1.39946667-47.58186667 4.1984-4.37333333 0.87466667-8.22186667 1.22453333-11.89546666 1.22453333-5.94773333 0-10.67093333-1.0496-17.14346667-2.44906667h-0.34986667l-0.3488-0.17493333c-18.71786667-4.37333333-29.3888-8.22186667-32.0128-11.37066667l-0.5248-1.0496c-0.5248-2.27306667-2.44906667-8.92053333-6.12266666-160.58666666-26.93973333-1.04853333-48.28053333-20.64-48.28053334-44.78186667 0-23.616 20.11733333-42.15786667 46.35733334-43.9072-0.176-10.32106667-0.35093333-18.71786667-0.7008-29.73866667H106.77333333c-4.72213333 0-11.19466667-4.89706667-11.19466666-9.2704v-103.90933333c-12.5952-0.69973333-20.992-2.44906667-28.51306667-5.07306667-30.9632-11.19573333-38.13546667-38.30933333-37.96053333-64.02453333 0-1.5744 0.5248-2.97386667 1.0496-4.02346667-7.17226667-12.42026667-6.64746667-27.28853333-5.42293334-37.95946666 1.0496-8.57173333 2.79893333-12.94506667 4.7232-14.86933334-4.54826667-9.4464-1.0496-20.11733333 2.0992-28.51413333 4.02346667-10.8448 12.94506667-12.76906667 23.616-10.66986667-5.07306667-9.62133333-2.624-18.368 12.42026667-30.61333333 4.72213333-3.84853333 15.21813333 7.52213333 27.81333333 17.14346667v-284.96213334c0-4.54826667 6.47253333-6.47253333 11.0208-6.47253333H908.48c4.7232 0 5.42293333 1.92426667 5.42293333 6.47253333v333.94133334c17.8432 1.0496 31.31306667 8.22186667 41.10933334 21.16693333 4.89706667 6.64746667 8.39573333 12.5952 9.2704 18.01813333 44.43306667 29.91253333 49.3312 63.49866667 22.5664 102.85866667zM303.3952 516.9472000000001c-24.49066667 0.5248-43.55733333 17.8432-43.55733333 39.184 0 21.69173333 20.11733333 39.36 44.78186666 39.36v2.79893333l0.17493334-0.69973333v-2.44906667c0.5248 0.17493333 1.0496 0.17493333 1.5744 0.34986667h1.92426666v0.5248c5.59786667 1.39946667 13.6448 3.1488 20.64213334 4.02346667 10.67093333 37.43466667 36.38506667 68.39786667 36.38506666 68.39786666s-10.496 30.7872-14.86933333 71.7216c54.5792-90.78933333 244.5536-86.59093333 298.78186667-11.5456-4.89813333-34.98666667-13.46986667-60.176-13.46986667-60.176s25.7152-30.78826667 36.38613333-68.39786666c6.99733333-0.87466667 14.86933333-1.22453333 20.2912-2.44906667v2.79893333h0.5248c24.6656 0 44.78293333-19.9424 44.78293334-41.63413333 0-9.97013333-4.1984-19.94133333-11.19573334-27.11466667-10.84586667-7.1712-26.7648-11.01973333-43.5584-11.01973333 0-7.17226667 1.0496-20.64213333 1.92426667-37.78453333h-379.424c0.17493333 11.01973333 0.5248 21.16586667 0.69973333 32.18666666v2.27413334l-2.79893333-0.34986667z m-202.5696-49.1552c0 4.37333333 6.8224 9.79626667 11.5456 9.79626667H903.232c4.54826667 0 5.94773333-5.248 5.94773333-9.79626667v-30.9632c0 0.5248-7.17226667 1.5744-11.5456 1.22453333-24.31466667-2.44906667-47.40586667-3.84853333-64.72426666-9.79626666H153.82933333l-1.39946666-2.97386667v-64.19946667c-11.5456 6.2976-27.28853333 8.9216-51.42933334 8.3968v98.31146667h-0.17493333z m741.1808-507.99893333H158.72746667V275.89333333c11.5456 4.54826667 16.61866667 11.71946667 16.09386666 23.44-0.5248 8.9216-4.54826667 14.51946667-16.09386666 17.8432v7.872c6.2976 2.0992 4.1984 4.54826667 5.59786666 7.17226667 5.7728 11.19573333 5.94773333 19.41653333-5.59786666 25.36533333v59.47626667h656.34026666c-2.97386667-5.94773333-5.07306667-8.3968-5.94773333-13.12-1.5744-8.57173333-1.74933333-19.59253333-1.22453333-30.08853333l-97.61066667-62.97493334s-30.26346667-16.2688-17.84426667-34.98666666c12.42026667-18.54186667 34.46186667-12.24533333 53.87946667-0.3488 12.944 7.872 42.3328 24.83946667 68.22293333 42.8576 0.17493333-0.17493333 0.34986667-0.17493333 0.5248-0.34986667-1.92426667-1.39946667-3.1488-2.44906667-3.1488-2.44906667-11.89546667-8.04693333-7.3472-39.36 16.44266667-44.08213333 3.32373333-0.69973333 10.32106667 0 10.32106667 1.22453333v-312.95146666h3.32373333zM155.57866667 263.648c0 3.6736-2.27413333 6.64746667-5.07306667 8.57173333 1.74933333 0.5248 4.02346667 1.0496 5.07306667 1.5744v-10.14613333z m0 55.10293333c-1.0496 0.17493333-1.74933333 0.34986667-2.624 0.5248 0.87466667 0.5248 1.5744 1.0496 2.624 1.5744v-2.0992zM903.232-95.48479999999995H112.3712c-4.54826667 0-11.5456 2.27413333-11.5456 6.8224V195.0752c6.2976 1.22453333 5.248 2.44906667 7.17226667 3.49866667 20.992 8.57173333 40.58346667 26.93866667 27.46453333 35.33546666-0.17493333 0-1.5744 0.17493333-1.74933333 0.17493334 10.14506667 4.02346667 18.7168 10.496 18.7168 22.0416v-308.57813334l698.848 2.624V261.5488c10.496-10.32106667 23.0912-15.56906667 36.90986666-11.0208 3.49866667-6.99733333 14.51946667-10.496 20.81706667-11.0208v-327.99466667c0-4.7232-1.22453333-6.99733333-5.7728-6.99733333z m0 0"  horiz-adv-x="1024" />

    
    <glyph glyph-name="list" unicode="&#58890;" d="M334.76280043 324.95530035H286.4535008c-13.41924977 0-24.1546498-10.73540004-24.15465091-24.15464981s10.73540004-24.1546498 24.15465091-24.15465091h48.30929963c13.41924977 0 24.1546498 10.73540004 24.1546498 24.15465091s-10.73540004 24.1546498-24.1546498 24.15464981z m0 166.39870002H286.4535008c-13.41924977 0-24.1546498-10.73540004-24.15465091-24.15465091s10.73540004-24.1546498 24.15465091-24.15464981h48.30929963c13.41924977 0 24.1546498 10.73540004 24.1546498 24.15464981s-10.73540004 24.1546498-24.1546498 24.15465091z m0-330.11355032H286.4535008c-13.41924977 0-24.1546498-10.73540004-24.15465091-24.1546498s10.73540004-24.1546498 24.15465091-24.15464981h48.30929963c13.41924977 0 24.1546498 10.73540004 24.1546498 24.15464981s-10.73540004 24.1546498-24.1546498 24.1546498zM420.64599962 467.19934946c0-13.41924977 10.73540004-24.1546498 24.15465091-24.15464981H742.70799963c13.41924977 0 24.1546498 10.73540004 24.15464981 24.15464981s-10.73540004 24.1546498-24.15464981 24.15465091H444.80065053c-13.41924977 0-24.1546498-10.73540004-24.15465091-24.15465091z m319.37815027-305.95889941h-295.22349936c-13.41924977 0-24.1546498-10.73540004-24.15465091-24.1546498s10.73540004-24.1546498 24.15465091-24.15464981H742.70799963c13.41924977 0 24.1546498 10.73540004 24.15464981 24.15464981-2.68384974 13.41924977-13.41924977 24.1546498-26.83849955 24.1546498zM946.68059924 598.70799964L664.87634964 883.19609898c-5.36769946 8.0515503-16.10309951 10.73540004-26.83849954 10.73540004H176.4156507c-26.83849955 0-53.67700019-10.73540004-72.46395053-29.52234929C82.4809001 842.93834966 71.74550116 818.78369986 71.74550116 789.26134949v-810.52269898c0-29.52235037 10.73540004-53.67700019 29.52234928-75.14780024 21.47080008-18.78695034 45.62544988-29.52235037 75.14780026-29.52234929h676.33019904c26.83849955 0 53.67700019 10.73540004 72.46394942 29.52234929 18.78695034 18.78695034 29.52235037 45.62544988 29.52235038 72.46395052v590.44699874c2.68384974 13.41924977-2.68384974 24.1546498-8.0515503 32.20620011zM659.50865018 775.84209971l179.81794978-182.50179953h-136.87635075c-10.73540004 0-21.47080008 5.36769946-29.52234926 13.41924977-8.0515503 8.0515503-10.73540004 18.78695034-10.73540005 29.52234927V775.84209971z m220.0756991-797.1034492c0-8.0515503-2.68384974-13.41924977-8.05155031-18.78695033-5.36769946-5.36769946-10.73540004-8.0515503-18.78694923-8.0515492H176.4156507c-8.0515503 0-13.41924977 2.68384974-18.78695035 8.0515492-5.36769946 5.36769946-8.0515503 10.73540004-8.0515503 18.78695033V789.26134949c0 8.0515503 2.68384974 13.41924977 8.0515503 18.78695033 5.36769946 5.36769946 10.73540004 8.0515503 18.78695035 8.0515492h437.46754959v-179.8179498c0-24.1546498 10.73540004-45.62544988 24.15464981-61.72854938v-2.68384974c16.10309951-16.10309951 37.57389958-26.83849955 61.72854939-26.83850064H876.90049955v-566.29234895z m-139.56019939 346.21664984h-295.22349936c-13.41924977 0-24.1546498-10.73540004-24.15465091-24.15464981s10.73540004-24.1546498 24.15465091-24.15465091H742.70799963c13.41924977 0 24.1546498 10.73540004 24.15464981 24.15465091-2.68384974 13.41924977-13.41924977 24.1546498-26.83849955 24.15464981z"  horiz-adv-x="1024" />

    
    <glyph glyph-name="folder-open" unicode="&#58902;" d="M950.857143 501.028571l-124.342857-438.857142c-7.314286-21.942857-36.571429-43.885714-58.514286-43.885715h-658.285714c-7.314286 0-14.628571 0-21.942857 7.314286 0 7.314286-7.314286 14.628571 0 21.942857l124.342857 438.857143c7.314286 21.942857 36.571429 43.885714 58.514285 43.885714h658.285715c7.314286 0 14.628571 0 14.628571-7.314285 7.314286 0 7.314286-7.314286 7.314286-21.942858zM73.142857 786.285714c0 21.942857 14.628571 36.571429 36.571429 36.571429h234.057143l65.828571-124.342857c0-14.628571 14.628571-21.942857 29.257143-21.942857h402.285714c21.942857 0 36.571429-14.628571 36.571429-36.571429V603.4285709999999H270.628571C219.428571 603.4285709999999 160.914286 559.542857 146.285714 501.028571L73.142857 252.34285699999998V786.285714z m936.228572-219.428571c-14.628571 21.942857-36.571429 29.257143-58.514286 36.571428v36.571429c0 58.514286-51.2 109.714286-109.714286 109.714286H460.8L394.971429 874.057143C394.971429 888.685714 380.342857 896 365.714286 896H109.714286C51.2 896 0 844.8 0 786.285714v-731.428571c0-36.571429 21.942857-73.142857 43.885714-87.771429h7.314286c14.628571-14.628571 36.571429-21.942857 58.514286-21.942857h658.285714c58.514286 0 109.714286 43.885714 131.657143 102.4l124.342857 438.857143c7.314286 29.257143 0 58.514286-14.628571 80.457143z"  horiz-adv-x="1026" />

    
    <glyph glyph-name="camera" unicode="&#58976;" d="M512 638.8622222199999c-141.99466667 0-254.86222222-112.86755555-254.86222222-254.86222222s112.86755555-254.86222222 254.86222222-254.86222222 254.86222222 112.86755555 254.86222222 254.86222222-112.86755555 254.86222222-254.86222222 254.86222222z m0-455.11111111c-109.22666667 0-200.24888889 91.02222222-200.24888889 200.24888889s91.02222222 200.24888889 200.24888889 200.24888889 200.24888889-91.02222222 200.24888889-200.24888889-91.02222222-200.24888889-200.24888889-200.24888889z m291.27111111 360.448a1.82044445 1.82044445 0 1 1 116.50844444 0 1.82044445 1.82044445 0 1 1-116.50844444 0zM912.49777778 711.6800000000001h-109.22666667l-25.48622222 76.45866667c-7.28177778 18.20444445-29.12711111 32.768-47.33155556 32.768H293.54666667c-21.84533333 0-40.04977778-14.56355555-47.33155556-32.768L220.72888889 711.6800000000001h-109.22666667c-61.89511111 0-109.22666667-47.33155555-109.22666667-109.22666667v-509.72444444c0-61.89511111 50.97244445-109.22666667 109.22666667-109.22666667h800.99555556c61.89511111 0 109.22666667 47.33155555 109.22666667 109.22666667V602.4533333300001c0 61.89511111-47.33155555 109.22666667-109.22666667 109.22666667z m54.61333333-618.95111111c0-29.12711111-25.48622222-54.61333333-54.61333333-54.61333334H111.50222222c-29.12711111 0-54.61333333 25.48622222-54.61333333 54.61333334V602.4533333300001c0 29.12711111 25.48622222 54.61333333 54.61333333 54.61333334h149.27644445l10.92266666 36.40888888 25.48622222 72.81777778h429.6248889l25.48622222-72.81777778 10.92266666-36.40888888H912.49777778c29.12711111 0 54.61333333-25.48622222 54.61333333-54.61333334v-509.72444444z"  horiz-adv-x="1024" />

    
    <glyph glyph-name="subtraction" unicode="&#58904;" d="M843.6 331.79999999999995H193.3v98.4h650.3v-98.4z"  horiz-adv-x="1024" />

    
    <glyph glyph-name="activity" unicode="&#59011;" d="M924.853683 705.045217h-35.892901c18.202422 30.887235 26.165982 60.295523 23.663149 87.599156-2.161538 22.866793-12.969226 55.517387-52.673259 81.569603-32.99189 21.615376-75.312521 26.962338-122.297522 15.244529C661.430508 870.345962 571.328519 804.646595 512 725.238529 452.671481 804.646595 362.569492 870.289079 286.403733 889.458505c-47.041884 11.774692-89.419398 6.42773-122.297523-15.244529-39.760915-26.052216-50.625486-58.702811-52.673258-81.569603-2.559716-27.303633 5.346961-56.711921 23.606266-87.599156h-35.892901c-54.379736 0-98.634374-44.254638-98.634374-98.634374v-147.780913c0-43.003222 28.384402-81.000778 69.453616-93.799356-3.868015-10.807688-5.915787-21.956671-5.915787-33.21942v-360.407954c0-54.379736 44.311521-98.634374 98.691257-98.634374h698.631707c54.379736 0 98.634374 44.254638 98.634374 98.634374V331.61115400000006c0 11.376514-1.934007 22.525497-5.858904 33.276303a98.691257 98.691257 0 0 1 69.396733 93.742473V606.4677260000001c0 54.379736-44.254638 98.634374-98.691256 98.634374zM192.490612 844.5212750000001c20.420842 13.196756 89.02122 15.358294 135.892457-14.84635 41.808688-26.905455 78.782358-55.346739 141.06877-125.938007H183.787579c-17.804244 27.872459-34.243306 52.730141-34.072658 76.791468 0 31.569826 21.04655 49.942895 42.832574 63.992889z m298.178425-929.347405H149.658038c-16.60971 0-42.605044 25.881569-42.605044 42.661926V332.862571c0 16.723475 13.424286 30.432174 30.033996 30.432174h353.582047v-448.177758z m0.170647 490.327741l-405.117653 0.45506c-17.292301 0-42.661926 22.58238-42.661927 42.661927V618.4699479999999c0 20.022664 25.369626 42.661926 42.661927 42.661926l405.117653 0.341296v-255.971559z m204.777247 425.310965c46.814354 30.432174 115.471614 28.327519 135.949339 14.960116 21.672259-14.16376 42.775692-32.707477 42.775692-64.504833 0.170648-24.345739-16.268415-49.430952-34.129541-77.530941H554.548161c62.343295 71.273858 99.316965 99.88579 141.125653 127.075658z m221.330075-872.97678c0-16.780358-25.995334-42.661926-42.661927-42.661926H533.387846V363.351628h353.582046c16.60971 0 30.033996-13.651816 30.033996-30.432175v-375.083657z m63.936007 491.18098c0-19.908899-25.312743-42.377514-42.661926-42.377514l-405.060771-0.45506V660.8474610000001l405.117653-0.341295c17.292301 0 42.661926-22.525497 42.661927-42.434396v-169.054994z"  horiz-adv-x="1024" />

    
    <glyph glyph-name="align-right" unicode="&#58952;" d="M236.307692-128v78.769231h866.461539v-78.769231H236.307692z m-236.307692 236.307692h1102.769231v-78.76923H0v78.76923z m315.076923 157.538462h787.692308v-78.769231H315.076923V265.84615399999996zM0 423.384615h1102.769231v-78.76923H0V423.384615z m78.769231 157.538462h1024v-78.769231H78.769231V580.9230769999999z m236.307692 157.538461h787.692308v-78.76923H315.076923V738.461538zM78.769231 896h1024v-78.769231H78.769231V896z"  horiz-adv-x="1102" />

    
    <glyph glyph-name="group" unicode="&#58899;" d="M1023.975 128.00900000000001H827.563c-4.73 7.547-10.316 14.759-16.911 21.332-33.148 32.809-143.314 61.08-207.815 103.777 50.605 18.137 100.89 37.663 101.154 66.881-0.585 35.041-63.455 63.993-63.997 127.994v63.998c0.543 127.886 94.694 128.336 117.37 128.204 22.677-0.133 118.474-0.317 117.285-128.204v-63.996c1.189-64.002-63.917-92.816-63.996-127.995 0.105-49.84 149.116-71.672 184.503-107.561 28.82-28.483 28.82-84.43 28.82-84.43zM234.68 575.988c-0.011 191.843 154.41 191.839 170.659 191.99 36.462 0.137 191.89-0.147 191.99-191.99 0 0-0.1-86.542 0-106.662-0.1-85.33-85.409-128.551-85.329-170.658-0.039-85.423 208.156-123.317 255.987-170.66 47.547-47.39 42.665-127.993 42.665-127.993H0.025s0 87.835 42.664 127.994c56.694 52.45 277.398 84.853 277.32 170.659-0.121 41.9-85.34 85.329-85.33 170.658-0.01 20.55-0.01 96.061 0 106.662z"  horiz-adv-x="1024" />

    
    <glyph glyph-name="ok" unicode="&#58885;" d="M353.080016 32.00887949000003c-8.50696579 0-16.64406349 3.3288127-22.56195274 9.36999129L11.44520165 360.45173239999997c-12.45222527 12.45222527-12.45222527 32.67168018 0 45.12390546 12.45222527 12.45222527 32.67168018 12.45222527 45.12390547 0L353.080016 109.06472898000004l615.70705984 615.70705985c12.45222527 12.45222527 32.67168018 12.45222527 45.12390546 0 12.45222527-12.45222527 12.45222527-32.67168018 0-45.12390547L375.64196873 41.37887078000006c-5.91788924-5.91788924-14.05498695-9.36999129-22.56195273-9.36999129z"  horiz-adv-x="1024" />

    
    <glyph glyph-name="Smile" unicode="&#59055;" d="M1024 384C1024 666.769792 794.769792 896 512 896 229.230208 896 0 666.769792 0 384 0 101.23020799999995 229.230208-128 512-128 629.410831-128 740.826187-88.33104600000001 830.768465-16.686661999999956 841.557579-8.092490999999995 843.33693 7.620766000000003 834.742758 18.409879000000046 826.148587 29.198990999999978 810.43533 30.978341999999998 799.646219 22.384173000000033 718.470035-42.277495000000044 618.001779-78.04878099999996 512-78.04878099999996 256.817504-78.04878099999996 49.951219 128.81750399999999 49.951219 384 49.951219 639.182496 256.817504 846.048781 512 846.048781 767.182496 846.048781 974.048781 639.182496 974.048781 384 974.048781 296.507166 949.714859 212.66323599999998 904.470807 140.039307 897.177109 128.33175700000004 900.755245 112.92820300000005 912.462793 105.63450699999999 924.170342 98.34080900000004 939.573897 101.91894200000002 946.867595 113.62649199999998 997.013826 194.11920399999997 1024 287.101621 1024 384ZM337.170731 396.487806C371.654852 396.487806 399.609756 424.442709 399.609756 458.926829 399.609756 493.41095 371.654852 521.365854 337.170731 521.365854 302.686611 521.365854 274.731708 493.41095 274.731708 458.926829 274.731708 424.442709 302.686611 396.487806 337.170731 396.487806ZM711.804879 396.487806C746.288998 396.487806 774.243902 424.442709 774.243902 458.926829 774.243902 493.41095 746.288998 521.365854 711.804879 521.365854 677.320757 521.365854 649.365854 493.41095 649.365854 458.926829 649.365854 424.442709 677.320757 396.487806 711.804879 396.487806ZM352.788105 127.22903299999996C396.165222 92.52733899999998 453.151987 71.80487900000003 524.487806 71.80487900000003 595.823622 71.80487900000003 652.810387 92.52733899999998 696.187505 127.22903299999996 722.700531 148.43945399999996 738.882517 170.01543500000002 746.631548 185.51349500000003 752.800254 197.850908 747.799529 212.85308399999997 735.462114 219.021792 723.124702 225.19049800000005 708.122526 220.18977299999995 701.953818 207.85235799999998 701.03616 206.01704299999994 698.492224 201.82703100000003 694.165854 196.058537 686.602473 185.97402899999997 676.927317 175.78965500000004 664.983226 166.23438299999998 630.311565 138.49705200000005 584.273939 121.75609799999995 524.487806 121.75609799999995 464.70167 121.75609799999995 418.664045 138.49705200000005 383.992384 166.23438299999998 372.048292 175.78965500000004 362.373137 185.97402899999997 354.809756 196.058537 350.483386 201.82703100000003 347.93945 206.01704299999994 347.021792 207.85235799999998 340.853084 220.18977299999995 325.850908 225.19049800000005 313.513495 219.021792 301.176081 212.85308399999997 296.175356 197.850908 302.344062 185.51349500000003 310.093092 170.01543500000002 326.275078 148.43945399999996 352.788105 127.22903299999996Z"  horiz-adv-x="1024" />

    
    <glyph glyph-name="add-circle" unicode="&#58911;" d="M729.09718 417.372595H546.32883V600.204694a35.89068 35.89068 0 1 1-71.717612 0v-182.76835H290.822885a35.89068 35.89068 0 0 1 0-71.717612h183.788333v-181.748365a35.89068 35.89068 0 0 1 71.717612 0V345.654984h182.76835a35.89068 35.89068 0 0 1 0 71.717611z m90.778559-345.200772A438.274295 438.274295 0 1 0 339.335865 785.841748a438.210546 438.210546 0 0 0 480.539874-713.669925zM509.991907 891.983814a509.991907 509.991907 0 1 1 509.991907-509.991907 509.991907 509.991907 0 0 1-509.991907 509.991907z"  horiz-adv-x="1024" />

    
    <glyph glyph-name="return" unicode="&#58972;" d="M988 419.2H121.024l245.552 245.552a36 36 0 1 1-50.912 50.912L15.856 415.856a36.48 36.48 0 0 1 0-51.28l299.808-299.824a36 36 0 0 1 50.912 50.912L135.056 347.20000000000005H988a36 36 0 0 1 36 36 36 36 0 0 1-36 36z"  horiz-adv-x="1024" />

    
    <glyph glyph-name="website" unicode="&#59310;" d="M817.152 102.74133332999997c-35.04355555 24.68977778-46.99022222 46.30755555-88.064 62.00888889 29.12711111 69.40444445 46.30755555 96.36977778 48.58311111 178.40355556h167.25333334c-4.55111111-114.23288889-52.33777778-165.77422222-127.77244445-240.41244445zM78.62044445 343.15377778000004h192.62577777c2.27555555-82.14755555 19.456-108.99911111 48.58311111-178.40355556-40.27733333-15.70133333-78.39288889-36.63644445-113.43644444-62.00888889-75.43466667 74.63822222-123.22133333 126.17955555-127.77244444 240.41244445z m118.784 299.46311111c33.56444445-27.648 70.88355555-49.26577778 111.27466666-66.44622222-22.41422222-62.00888889-35.04355555-104.56177778-36.63644444-176.24177778h-193.42222222c3.75466667 104.56177778 53.81688889 170.21155555 118.784 242.688z m356.12444444-241.89155556V536.576c54.49955555 1.47911111 82.14755555 11.94666667 131.41333333 29.12711111 20.93511111-58.93688889 32.88177778-97.84888889 35.04355556-164.97777778H553.52888889z m120.26311111-224.82488888c-46.30755555 14.90488889-69.40444445 23.09688889-120.26311111 24.68977777V343.15377778000004h166.45688889c-2.16177778-78.39288889-18.54577778-101.48977778-46.19377778-167.25333333z m42.55288889-66.44622223c36.63644445-14.22222222 45.51111111-32.88177778 76.91377778-54.49955555-59.73333333-51.54133333-132.20977778-85.10577778-209.80622222-97.84888889 42.55288889 43.34933333 104.448 94.89066667 132.89244444 152.34844444zM528.15644445-48.810666670000046l25.37244444 191.14666667c46.30755555-1.47911111 64.96711111-8.98844445 106.72355556-21.61777778-31.40266667-64.96711111-76.11733333-122.42488889-130.6168889-169.52888889h-1.4791111z m-87.38133334 5.91644445c-77.59644445 12.74311111-150.07288889 46.99022222-210.60266666 97.84888889 32.08533333 22.41422222 66.44622222 40.27733333 102.28622222 54.49955555 26.96533333-55.97866667 63.60177778-107.52 108.31644444-152.34844444z m54.49955556 386.048v-142.56355556c-50.74488889-1.47911111-73.95555555-9.67111111-120.26311112-24.68977777-27.648 66.44622222-44.032 88.86044445-46.30755555 167.25333333h166.57066667zM363.86133333 565.70311111c49.26577778-17.18044445 76.91377778-26.85155555 131.41333334-29.12711111v-135.85066667H328.81777778c2.27555555 67.12888889 14.22222222 105.92711111 35.04355555 164.97777778z m-43.23555555 65.64977778c-36.63644445 14.90488889-70.20088889 35.04355555-101.48977778 59.73333333 62.00888889 59.73333333 132.89244445 105.24444445 221.75288889 120.26311111-51.65511111-51.54133333-92.61511111-112.75377778-120.26311111-179.99644444z m174.64888889 185.91288889v-223.232c-50.74488889 1.47911111-73.95555555 10.46755555-119.46666667 26.16888889 33.56444445 79.18933333 57.45777778 146.31822222 117.98755555 197.06311111h1.47911112z m87.38133333-5.23377778c89.54311111-15.70133333 172.48711111-57.45777778 238.13688889-120.26311111-33.56444445-25.37244445-53.02044445-43.34933333-92.61511111-59.73333334-29.01333333 68.83555555-95.45955555 130.048-145.52177778 179.99644445z m-53.02044445 5.23377778c62.69155555-53.02044445 111.95733333-120.94577778 143.36-197.06311111-45.51111111-15.70133333-68.72177778-24.68977778-119.46666666-26.16888889l-25.37244444 223.232h1.4791111zM493.79555555-48.12800000000004c-53.70311111 44.82844445-72.47644445 102.28622222-105.24444444 169.52888889 41.75644445 13.42577778 61.21244445 20.13866667 107.52 21.61777778v-191.14666667h-2.27555556z m451.01511112 448.85333333h-167.25333334c-1.47911111 70.88355555-14.22222222 113.43644445-36.63644444 175.44533334 43.34933333 17.86311111 65.64977778 38.11555555 102.28622222 66.44622222 64.96711111-72.47644445 97.84888889-138.12622222 101.60355556-241.89155556zM511.77244445 893.49688889c-281.48622222 0-509.26933333-227.78311111-509.26933334-509.26933334s227.78311111-509.26933333 509.26933334-509.26933333 509.26933333 227.78311111 509.26933333 509.26933333S793.25866667 893.49688889 511.77244445 893.49688889z"  horiz-adv-x="1024" />

    
    <glyph glyph-name="loading-1" unicode="&#58942;" d="M988 348c-19.9 0-36 16.1-36 36 0 59.4-11.6 117-34.6 171.3-22.2 52.4-53.9 99.4-94.3 139.9-40.4 40.4-87.5 72.2-139.9 94.3C629 812.4 571.4 824 512 824c-19.9 0-36 16.1-36 36s16.1 36 36 36c69.1 0 136.2-13.5 199.3-40.3C772.3 830 827 793 874 746c47-47 83.9-101.8 109.7-162.7 26.7-63.1 40.2-130.2 40.2-199.3 0.1-19.9-16-36-35.9-36z"  horiz-adv-x="1024" />

    
    <glyph glyph-name="moreread" unicode="&#58975;" d="M207.59857214 386.7123659c-0.12328937-56.09665844-45.37048419-101.34385326-101.59043198-101.2205639-55.97336907 0.12328937-101.46714262 45.61706291-101.34385327 101.71372133 0 55.85007972 45.74035225 101.34385326 101.8370107 101.22056391 55.97336907-0.12328937 101.09727454-45.49377354 101.09727455-101.71372134zM918.97817473 488.30279789c56.09665844 0 101.71372135-45.37048419 101.71372133-101.34385327 0.12328937-55.97336907-45.37048419-101.59043198-101.46714262-101.59043198-56.21994779 0-101.59043198 45.12390547-101.59043199 101.34385326s45.12390547 101.59043198 101.34385328 101.59043199zM512.49315743 285.36851263999995c-55.97336907 0-101.8370107 45.98693098-101.59043197 101.59043198 0.36986808 56.09665844 45.74035225 101.34385326 101.8370107 101.34385327 55.97336907 0 101.71372135-45.74035225 101.46714262-101.59043199-0.12328937-55.97336907-45.61706291-101.34385326-101.71372135-101.34385326z"  horiz-adv-x="1024" />

    
    <glyph glyph-name="prime_morevertical" unicode="&#58993;" d="M517.546667-21.33333300000004m-106.666667 0a106.666667 106.666667 0 1 1 213.333333 0 106.666667 106.666667 0 1 1-213.333333 0ZM517.546667 384m-106.666667 0a106.666667 106.666667 0 1 1 213.333333 0 106.666667 106.666667 0 1 1-213.333333 0ZM517.546667 789.333333m-106.666667 0a106.666667 106.666667 0 1 1 213.333333 0 106.666667 106.666667 0 1 1-213.333333 0Z"  horiz-adv-x="1024" />

    
    <glyph glyph-name="icon-cart" unicode="&#58967;" d="M1008.081 691.037a37.935 37.935 0 0 1-30.091 14.848H206.336L172.916 865.28A37.888 37.888 0 0 1 135.843 895.418H37.935a37.888 37.888 0 1 1 0-75.822h67.141L249.6 129.55899999999997a37.888 37.888 0 0 1 37.073-30.138h547.654a37.888 37.888 0 1 1 0 75.8H317.44l-23.785 113.733h592.757c17.152 0 32.186 11.497 36.608 28.09l91.578 341.132a37.865 37.865 0 0 1-6.517 32.861zM857.367 364.75300000000004H277.76l-55.552 265.31h706.374l-71.215-265.31zM358.4 61.50999999999999c-51.316 0-93.09-41.728-93.09-93.091 0-51.34 41.774-93.091 93.09-93.091 51.363 0 93.09 41.751 93.09 93.09 0 51.364-41.727 93.092-93.09 93.092z m1.699-132.655a37.935 37.935 0 0 0 0 75.8 37.935 37.935 0 0 0 0-75.8zM753.757 61.50999999999999a94.86 94.86 0 0 1-94.766-94.743A94.86 94.86 0 0 1 753.757-128a94.86 94.86 0 0 1 94.767 94.767 94.86 94.86 0 0 1-94.767 94.743z m0-132.655a37.935 37.935 0 0 0 0 75.8 37.935 37.935 0 0 0 0-75.8z"  horiz-adv-x="1024" />

    
    <glyph glyph-name="circle-dot" unicode="&#58903;" d="M512 896Q295.1 890.29 150.69 745.88T0.57 383.42999999999995q5.71-216.9 150.12-361.31T512-128q218.04 5.71 362.45 150.12t148.98 361.31q-4.57 218.04-148.98 362.45T512 896z m0-956.65q-188.36 5.71-313.94 130.72-125.58 125-130.14 313.36 4.57 189.5 130.14 314.51Q323.63 822.94 512 828.66q188.36-5.71 313.93-130.72 125.58-125 130.15-314.51-4.57-188.36-130.15-313.36Q700.36-54.940000000000055 512-60.64999999999998z m0 444.08z m-392.7 0q0-106.17 51.94-195.78 51.94-89.62 144.41-143.27 92.47-53.65 196.35-53.65t196.35 53.65q92.47 53.65 144.41 143.27t51.94 196.36q0 106.74-51.94 196.36-51.94 89.61-144.41 143.27Q615.88 777.3 512 777.3t-196.35-53.66q-92.47-53.66-144.41-143.27-51.94-89.62-51.94-196.93z"  horiz-adv-x="1024" />

    
    <glyph glyph-name="find-fill" unicode="&#58992;" d="M512 896Q294 891 149.5 746.5T0 384q5-218 149.5-362.5T512-128q218 5 362.5 149.5T1024 384q-5 218-149.5 362.5T512 896z m145-512q-1-59-39.5-99.5T521 240L345 88l-23 13 58 222q-13 28-13 61 1 59 39.5 99.5T503 528l176 152 23-13-59-222q14-28 14-61z m-145 0z m-66 0q1-28 19.5-46.5T512 319q28 0 46.5 18.5T577 384q0 28-18.5 46.5T512 449q-28 0-46.5-18.5T446 384z"  horiz-adv-x="1024" />

    
    <glyph glyph-name="layer" unicode="&#58936;" d="M0 810.66666668v-841.85h1024V810.66666668H0z m969.85-787.69H54.15V522.6666666799999h915.7v-499.69z"  horiz-adv-x="1024" />

    
    <glyph glyph-name="log" unicode="&#58894;" d="M874.12 746.12Q800.89 819.34 708.21 857.67 615.54 896 512 896T315.78 857.67q-92.67-38.33-165.9-111.55-73.22-73.23-111.55-165.9Q0 487.54 0 384.57q0-75.51 21.16-146.44Q42.32 167.20000000000005 82.37 105.39999999999998q9.15-12.58 22.88-15.44 13.73-2.86 26.31 5.15 12.59 8.01 15.44 21.74 2.86 13.73-4 27.45-35.47 53.78-53.78 114.42-18.31 60.64-18.31 125.85 4.57 186.5 129.28 311.21Q324.9 820.49 512.54 825.06q186.5-4.57 311.21-129.28 124.71-124.71 129.28-311.21-4.57-187.64-129.28-311.78-124.71-124.13-311.21-128.71-60.64 0-118.42 16.02-57.77 16.02-110.4 46.91-12.59 6.86-26.32 3.43t-21.74-16.02q-8.01-12.58-4.57-26.31 3.44-13.73 16.01-21.74 60.64-36.61 127.57-55.49Q441.61-128 512.54-128q102.97 1.14 195.64 39.47 92.68 38.33 165.9 110.98 73.23 72.66 111.56 165.9 38.33 93.25 38.33 196.22t-38.33 195.64q-38.33 92.67-111.55 165.9z m-382.14-11.44q-18.31 0-31.47-12.59-13.15-12.59-13.15-32.03v-329.51q2.28-17.17 14.87-28.04 12.59-10.87 30.89-10.87h256.29q18.3 1.15 31.46 13.74t13.16 32.04q0 19.45-13.16 32.03-13.16 12.58-31.46 12.58H537.74V690.06q-1.14 19.45-13.73 32.03-12.58 12.59-32.03 12.59z"  horiz-adv-x="1024" />

    
    <glyph glyph-name="unlink" unicode="&#58957;" d="M97.954043 822.850714Q83.104188 817.13077 76.81425 804.560893 70.534311 791.991016 73.954278 775.991172q3.429967-9.139911 10.289899-14.859855l140.568628-140.568627q7.999922-12.569877 22.279782-15.999844 14.279861-3.429967 27.429732 4.569955t16.579838 22.289783q3.429967 14.279861-4.569955 27.999726-4.579955 6.859933-11.429889 11.429889L134.533686 811.420826q-12.579877 13.709866-31.999687 11.429888h-4.579956z m292.577143 71.999297q-11.429888-3.429967-18.289821-13.709866-6.859933-10.2899-6.859933-22.859777v-145.148582q0-15.999844 10.279899-26.279744 10.2899-10.2799 26.289744-10.279899t26.289743 10.279899q10.2899 10.2799 10.289899 26.279744V858.280368q0 15.999844-10.289899 26.289744T403.101063 896q-4.569955 0-7.999921-1.139989h-4.569956z m-359.996484-364.56644q-14.859855-3.429967-23.429771-14.859854T0.824992 487.993984q2.289978-15.999844 14.28986-24.56976t26.849738-6.289938h140.578627q15.999844 0 26.279744 10.279899 10.2799 10.2899 10.279899 25.719749t-10.279899 26.289744q-10.2799 10.859894-26.279744 10.859893h-151.998515zM835.096845 310.85571400000003q-14.859855-2.289978-23.429771-11.429888t-6.289939-25.139755q2.279978-15.999844 14.279861-26.859737t26.859737-9.719905h140.568627q15.999844 1.149989 26.279744 13.719866 10.2799 12.569877 10.279899 28.569721t-10.279899 23.429771q-10.2799 7.429927-26.279744 7.429927h-151.998515zM609.949043 90.287868q-11.419888-3.429967-18.279821-13.709866-6.859933-10.2899-6.859933-22.869776v-145.138583q1.139989-15.999844 11.429888-26.279743 10.2899-10.2899 25.709749-10.2899 15.429849 0 25.709749 10.2899 10.2899 10.2799 10.2899 26.279743V53.70822599999997q0 15.999844-10.2899 26.289743-10.2799 10.2899-25.129754 11.429888-3.429967 0-7.999922-1.139989h-4.579956z m146.288572 74.279275q-14.859855-5.709944-21.139794-18.279822-6.289939-12.579877-2.859972-28.57972 3.429967-9.139911 10.2899-14.849855L883.096376-37.71088199999997q7.999922-12.579877 22.279782-15.999843 14.279861-3.429967 27.419733 4.569955 13.139872 7.999922 16.569838 22.279782 3.429967 14.279861-4.569956 27.999727-4.569955 6.859933-11.429888 11.429888L792.797258 153.13725499999998q-12.569877 13.719866-31.999688 11.429888h-4.569955zM315.101923-22.861027000000036q-42.289587 0-82.289197 15.999844-39.999609 15.999844-73.139285 47.999531-63.999375 67.429342-63.999375 155.428482t63.999375 155.428483l100.569018 99.429029q11.429888 11.429888 25.719748 11.429888 14.279861 0 25.709749-10.859894 11.429888-10.859894 11.429889-25.719749 0-14.849855-11.429889-26.279743L211.102938 299.42582600000003q-42.289587-44.569565-42.289587-102.848996 0-58.289431 42.289587-103.998984 45.709554-42.279587 103.998985-42.279587 58.279431 0 102.848995 42.279587l100.579018 100.569018q11.419888 11.429888 26.279744 11.429888 14.859855 0 25.719748-11.429888t10.859894-25.719749q0-14.279861-11.429888-25.709749l-99.419029-100.569018q-33.149676-31.999688-73.149286-47.999531-39.999609-15.999844-82.279196-15.999844z m413.70596 338.286697q-14.859855 0-25.709749 10.859894-10.859894 10.859894-10.859894 25.139754 0 14.28986 10.289899 25.719749L803.097157 477.714085q43.429576 44.579565 43.429576 103.43899T803.097157 684.5820650000001q-44.569565 42.289587-102.858995 42.289587t-103.998985-42.289587L495.670159 584.0130469999999q-10.2899-10.2899-25.149754-10.2899-14.849855 0-25.709749 10.859894-10.859894 10.859894-10.859894 25.709749 0 14.859855 10.2899 26.289743l100.569018 99.429029q67.429342 63.999375 154.858487 63.999375t154.858488-63.999375q65.139364-67.429342 65.139364-154.858487t-65.139364-154.848488L755.097626 325.72556899999995q-11.429888-10.2799-26.289743-10.2799z"  horiz-adv-x="1024" />

    
    <glyph glyph-name="align-left" unicode="&#58953;" d="M992 448H32q-14 0-23 9t-9 23q0 14 9 23t23 9h960q14 0 23-9t9-23q0-14-9-23t-23-9zM32 704h704q14 0 23-9t9-23q0-14-9-23t-23-9H32q-14 0-23 9t-9 23q0 14 9 23t23 9zM992 832H32q-14 0-23 9T0 864Q0 878 9 887t23 9h960q14 0 23-9t9-23q0-14-9-23t-23-9zM32 320h704q14 0 23-9t9-23q0-14-9-23t-23-9H32q-14 0-23 9t-9 23q0 14 9 23t23 9z m0-192h960q14 0 23-9t9-23q0-14-9-23t-23-9H32q-14 0-23 9t-9 23q0 14 9 23t23 9z m0-192h704q14 0 23-9t9-23q0-14-9-23t-23-9H32q-14 0-23 9t-9 23q0 14 9 23t23 9z"  horiz-adv-x="1024" />

    
    <glyph glyph-name="fonts-strong" unicode="&#58923;" d="M82.93419 896h408.906007q122.098808 0 181.998223-9.789904 59.889415-9.789904 106.538959-42.04959 46.649544-32.259685 78.319235-85.809162 31.679691-53.559477 31.679691-120.368824 0-71.409303-38.579623-131.878712-38.589623-60.479409-104.248982-90.419117 93.299089-26.499741 143.408599-92.1591 50.109511-65.649359 50.109511-154.348493 0-70.259314-32.249685-135.918673-32.259685-65.659359-88.699134-105.388971-56.439449-39.739612-139.368639-48.959521-51.839494-5.759944-248.79757-6.909933H82.93419V895.99z m206.187987-170.468335v-237.287683h135.908672q120.948819 0 149.748538 3.459966 52.979483 6.909933 83.499184 37.439635 30.519702 30.529702 30.519702 78.899229 0 48.369528-25.909747 78.319235-25.909747 29.949708-77.74924 35.709652-31.099696 3.459966-177.378268 3.459966H289.122177z m0-407.756018v-271.837346h192.358121q111.728909 0 141.668617 5.759944 46.07955 8.059921 75.449263 40.309606 29.369713 32.249685 29.369713 86.379157 0 46.07955-22.459781 78.329235t-65.079364 46.649544q-42.619584 14.399859-183.138212 14.39986H289.122177z"  horiz-adv-x="1024" />

    
    <glyph glyph-name="fonts-u" unicode="&#58950;" d="M34.5-49h945v-79h-945v79z m0 945h407v-62l-88-6-20-18v-444q0-127 54-181.5t177-54.5q114 0 165 58t51 190V805l-22 22-91 7V896h322v-62l-86-7-20-22v-440q0-177-88.5-256t-285.5-79q-103 0-181 26.5t-122 77.5q-34 39-48.5 90t-14.5 147V810l-20 18-89 6V896z"  horiz-adv-x="1024" />

    
    <glyph glyph-name="picture" unicode="&#58954;" d="M765.45 632.94333335q7.01 4 52.09-11.53 45.08-15.53 51.09-89.66 5.01-6.01-8.51-49.59-13.52-43.58-94.66-50.59-6.01-4.01-50.09 11.02-44.08 15.03-49.09 89.16-4 6.01 11.53 47.58 15.52 41.58 87.65 53.6zM968.81 789.21333335q4 1 27.55-8.52 23.54-9.51 27.54-43.58v-714.26q1.01-3-8.51-25.54t-46.58-26.55V789.20333335zM0.1 22.863333349999948q-1-4.01 8.02-26.55 9.01-22.54 45.07-25.54h915.62V121.03333335000002h-99.18L666.27 328.40333335 513 174.13333335000004 303.64 431.58333335 98.27 123.04333335000001l-45.08-1-2 614.08H0.1v-713.26zM968.81 789.21333335H53.19q-4 1-26.54-6.51T0.1 737.1233333499999h968.71V789.21333335z"  horiz-adv-x="1024" />

    
    <glyph glyph-name="fonts-i" unicode="&#58948;" d="M951.18 896v-72.82H804.41L439.18-55.17999999999995h145.64V-128h-512v72.82h146.77L584.82 823.1800000000001H439.18V896h512z"  horiz-adv-x="1024" />

    
    <glyph glyph-name="console" unicode="&#58981;" d="M31.01 115.93142857999999q4-12.99 14.99-17.49 11-4.5 22.49-1 11.49 3.5 16.49 14.5 5 11 1 21.99Q36 280.86142858000005 78.48 419.78142858q42.48 138.93 159.42 230.88 16.99 12.99 36.98 25.99 37.98 24.98 83.95 38.98 87.96 31.98 176.91 27.98h24.99q8.99 1 18.99-2 43.97-6.99 87.95-23.98 178.91-69.97 255.37-234.38 76.45-164.41 14.49-346.32-3-12.99 2-23.49 5-10.5 16.99-14 12-3.5 22.49 1.5 10.5 5 14.5 16.99 30.98 87.95 30.48 176.9-0.5 88.96-30.48 171.92h2Q937.54 618.67142858 814.11 707.12142858 690.67 795.57142858 537.75 804.57142858h-48.98Q335.85 795.57142858 212.42 707.12142858 88.98 618.67142858 31.01 466.75142858 1.03 384.79142858 0.03 294.84142857999996t30.98-178.91z m706.63 385.8q-8.99 8.99-20.99 8.99-12 0-21-8.99l-173.9-173.91q-7 2-14 2-24.98-1-41.48-16.99-16.49-15.99-16.49-40.98 0-24.99 16.49-41.48 16.5-16.49 41.48-16.49 24.99 0 40.98 16.49 15.99 16.49 16.99 41.48 0 6-3 15.99l174.91 173.91q9 9.99 9 21.49 0 11.5-9 18.5zM965.52 43.97142857999995H58q-11.99-1-20.48-9.5-8.5-8.5-8.5-20.99 0-12.5 8.5-21.49 8.49-9 20.48-9h907.52q13 0 21.5 9t8.5 21.49q0 12.5-8.5 20.99-8.5 8.5-21.5 9.5z"  horiz-adv-x="1024" />

    
    <glyph glyph-name="spread-left" unicode="&#58987;" d="M992.14 832.00000001H31.86Q18.2 832.00000001 9.67 822.90000001 1.14 813.80000001 0 800.14000001v-63.71q1.14-13.66 9.67-22.76 8.53-9.1 22.19-10.24h960.28q13.66 1.14 22.76 10.24 9.1 9.1 9.1 22.76V800.14000001q0 13.66-9.1 22.76-9.1 9.1-22.76 9.1zM31.86 320.00000001h512q13.65 0 22.75 9.1 9.11 9.1 9.11 22.76v63.71q0 13.66-9.11 22.76-9.11 9.1-22.75 10.24h-512q-13.66-1.14-22.19-10.24-8.53-9.1-9.67-22.76v-63.71q1.14-13.66 9.67-22.76 8.53-9.1 22.19-9.1z m960.28-256H31.86q-13.66 0-22.19-9.1-8.53-9.1-9.67-22.76v-63.71q1.14-13.66 9.67-22.76 8.53-9.1 22.19-9.1h960.28q13.66 0 22.76 9.1 9.1 9.1 9.1 22.76v63.71q0 13.66-9.1 22.76-9.1 9.1-22.76 9.1z m7.97 327.68l-256 161.56v-321.99l256 160.43z"  horiz-adv-x="1024" />

    
    </font>
</defs>
</svg>
